<svg width="121" height="38" viewBox="0 0 121 38" fill="none" xmlns="http://www.w3.org/2000/svg">
<path d="M14.848 32.872C14.1013 32.872 13.1627 32.1573 12.032 30.728C10.9013 29.32 9.77067 27.624 8.64 25.64C7.53067 23.6347 6.624 21.8 5.92 20.136C5.42933 21.7787 4.85333 23.8053 4.192 26.216C3.82933 27.5813 3.30667 29.4373 2.624 31.784C2.06933 31.784 1.57867 31.624 1.152 31.304C0.725333 31.0053 0.512 30.632 0.512 30.184C0.512 29.864 0.661333 29.2773 0.96 28.424C2.38933 23.9867 3.70133 20.168 4.896 16.968C6.09067 13.7467 7.47733 10.344 9.056 6.76C8.24533 6.888 7.54133 7.08 6.944 7.336C6.368 7.57067 5.73867 7.86933 5.056 8.232C4.65067 8.46667 4.39467 8.584 4.288 8.584C4.13867 8.584 3.936 8.47733 3.68 8.264C3.424 8.05067 3.296 7.86933 3.296 7.72C6.02667 6.54667 8.42667 5.96 10.496 5.96C11.8187 5.96 13.0987 6.17333 14.336 6.6C15.5733 7.02667 16.5867 7.688 17.376 8.584C18.1867 9.48 18.592 10.6 18.592 11.944C18.592 13.8427 17.824 15.3147 16.288 16.36C14.7733 17.384 13.1093 18.0667 11.296 18.408C9.504 18.728 7.95733 18.888 6.656 18.888C6.86933 19.272 7.06133 19.624 7.232 19.944C7.424 20.264 7.59467 20.552 7.744 20.808C8.66133 22.4507 9.46133 23.8053 10.144 24.872C10.848 25.9387 11.712 27.0693 12.736 28.264C13.7813 29.4373 15.0293 30.6213 16.48 31.816C16.352 32.0933 16.1173 32.3387 15.776 32.552C15.456 32.7653 15.1467 32.872 14.848 32.872ZM6.432 18.376C8.11733 18.2693 9.71733 17.9493 11.232 17.416C12.7467 16.8827 13.9947 16.104 14.976 15.08C15.9573 14.056 16.448 12.7867 16.448 11.272C16.448 9.65067 15.8933 8.47733 14.784 7.752C13.696 7.00533 12.3413 6.632 10.72 6.632C9.44 9.192 8.01067 13.1067 6.432 18.376ZM18.9385 37.96C18.3625 37.96 17.8825 37.8107 17.4985 37.512C17.1145 37.2133 16.9225 36.7973 16.9225 36.264C16.9225 35.4107 17.1892 34.6533 17.7225 33.992C18.2772 33.352 18.9492 32.7867 19.7385 32.296C20.5278 31.8267 21.6585 31.2187 23.1305 30.472C23.7705 28.8293 24.3678 26.8773 24.9225 24.616C24.1545 25.8747 23.3865 26.8667 22.6185 27.592C21.8505 28.3173 21.0612 28.68 20.2505 28.68C19.5678 28.68 18.9705 28.456 18.4585 28.008C17.9465 27.56 17.6905 26.92 17.6905 26.088C17.6905 25.32 17.8612 24.3813 18.2025 23.272C18.5438 22.1627 18.9385 21.192 19.3865 20.36C19.8345 19.528 20.2078 19.112 20.5065 19.112C20.6985 19.112 20.9758 19.1973 21.3385 19.368C21.7225 19.5173 21.9145 19.6773 21.9145 19.848C21.4878 20.4667 21.0292 21.4693 20.5385 22.856C20.0478 24.2213 19.8025 25.3093 19.8025 26.12C19.8025 26.9733 20.1865 27.4 20.9545 27.4C21.5305 27.4 22.2025 27.0053 22.9705 26.216C23.7598 25.4267 24.5065 24.456 25.2105 23.304C25.3172 22.9413 25.4238 22.4507 25.5305 21.832C25.6158 21.4267 25.7865 21.0533 26.0425 20.712C26.3198 20.3707 26.6932 20.2 27.1625 20.2C27.3545 20.2 27.5785 20.232 27.8345 20.296C27.8345 20.872 27.5892 22.056 27.0985 23.848C26.6292 25.64 26.0425 27.4427 25.3385 29.256C26.4052 28.8293 27.4078 28.168 28.3465 27.272C29.2852 26.3547 30.0425 25.2027 30.6185 23.816L31.0345 24.136C30.2452 26.632 28.2292 28.6267 24.9865 30.12C24.0478 32.424 23.0558 34.3013 22.0105 35.752C20.9865 37.224 19.9625 37.96 18.9385 37.96ZM18.7785 36.936C19.0132 36.936 19.3438 36.7333 19.7705 36.328C20.1972 35.944 20.6772 35.3253 21.2105 34.472C21.7438 33.6187 22.2772 32.5413 22.8105 31.24C21.6798 31.8373 20.7838 32.3387 20.1225 32.744C19.4825 33.1707 18.9492 33.6507 18.5225 34.184C18.1172 34.7173 17.9145 35.3147 17.9145 35.976C17.9145 36.1893 17.9892 36.4027 18.1385 36.616C18.2878 36.8293 18.5012 36.936 18.7785 36.936ZM32.976 31.336C31.888 31.336 31.0667 30.9733 30.512 30.248C29.9573 29.544 29.68 28.5627 29.68 27.304C29.68 25.2773 30.32 22.568 31.6 19.176C32.88 15.784 34.32 12.7653 35.92 10.12C37.5413 7.47467 38.7787 6.152 39.632 6.152C39.952 6.152 40.1973 6.36533 40.368 6.792C40.56 7.19733 40.656 7.656 40.656 8.168C40.656 9.17067 40.304 10.504 39.6 12.168C38.896 13.832 37.9787 15.432 36.848 16.968C35.7173 18.504 34.5547 19.6347 33.36 20.36C33.0827 20.872 32.752 21.832 32.368 23.24C32.0053 24.648 31.824 25.9387 31.824 27.112C31.824 29.1173 32.4107 30.12 33.584 30.12C34.2027 30.12 34.8427 29.864 35.504 29.352C36.1653 28.8613 36.6987 28.2213 37.104 27.432C36.3573 27.048 35.7813 26.4827 35.376 25.736C34.9707 24.968 34.768 24.1573 34.768 23.304C34.768 22.3013 35.024 21.4907 35.536 20.872C36.0693 20.232 36.7093 19.912 37.456 19.912C38.0747 19.912 38.5653 20.168 38.928 20.68C39.2907 21.192 39.472 21.9173 39.472 22.856C39.472 24.264 39.0987 25.7147 38.352 27.208C38.608 27.272 38.8853 27.304 39.184 27.304C40.1867 27.304 40.9867 26.984 41.584 26.344C42.2027 25.704 42.768 24.8613 43.28 23.816L43.664 24.232C43.1093 25.5973 42.4373 26.5467 41.648 27.08C40.88 27.6133 40.0267 27.88 39.088 27.88C38.7253 27.88 38.384 27.848 38.064 27.784C37.424 28.8507 36.6773 29.704 35.824 30.344C34.9707 31.0053 34.0213 31.336 32.976 31.336ZM33.712 19.112C34.6293 18.3867 35.536 17.3413 36.432 15.976C37.3493 14.5893 38.096 13.224 38.672 11.88C39.2693 10.5147 39.568 9.55467 39.568 9C39.568 8.82933 39.5253 8.744 39.44 8.744C39.2053 8.744 38.704 9.288 37.936 10.376C37.1893 11.464 36.4107 12.8187 35.6 14.44C34.7893 16.04 34.16 17.5973 33.712 19.112ZM37.424 26.792C37.9147 25.7467 38.16 24.6693 38.16 23.56C38.16 22.8347 38.0533 22.2587 37.84 21.832C37.648 21.384 37.4027 21.16 37.104 21.16C36.784 21.16 36.496 21.384 36.24 21.832C36.0053 22.28 35.888 22.824 35.888 23.464C35.888 24.104 36.016 24.7333 36.272 25.352C36.528 25.9707 36.912 26.4507 37.424 26.792ZM48.7378 15.176C48.3538 15.176 48.0338 15.0907 47.7778 14.92C47.5431 14.728 47.4258 14.4613 47.4258 14.12C47.4258 13.6933 47.6818 13.3093 48.1938 12.968C48.7058 12.6267 49.2284 12.456 49.7618 12.456C50.4658 12.456 50.8177 12.7867 50.8177 13.448C50.8177 13.8533 50.5938 14.248 50.1458 14.632C49.7191 14.9947 49.2498 15.176 48.7378 15.176ZM44.8978 29.832C44.1084 29.832 43.5004 29.576 43.0738 29.064C42.6471 28.5733 42.4337 27.9333 42.4337 27.144C42.4337 26.312 42.6684 25.16 43.1378 23.688C43.6284 22.216 44.2258 20.9253 44.9298 19.816C45.6551 18.7067 46.3591 18.152 47.0418 18.152C47.2338 18.152 47.3938 18.216 47.5218 18.344C47.6711 18.472 47.7458 18.6427 47.7458 18.856C47.7458 19.1547 47.4044 19.8693 46.7218 21C46.0178 22.1733 45.4524 23.2293 45.0258 24.168C44.6204 25.0853 44.4178 25.96 44.4178 26.792C44.4178 27.5387 44.5351 28.0507 44.7698 28.328C45.0258 28.584 45.4311 28.712 45.9858 28.712C47.6498 28.712 49.2924 27.08 50.9138 23.816L51.2018 24.136C50.6044 25.928 49.7191 27.3253 48.5458 28.328C47.3938 29.3307 46.1778 29.832 44.8978 29.832ZM53.7365 30.792C52.6698 30.792 51.8058 30.44 51.1445 29.736C50.4832 29.032 50.1525 28.0187 50.1525 26.696C50.1525 25.3093 50.5045 23.9547 51.2085 22.632C51.9125 21.3093 52.8085 20.2427 53.8965 19.432C55.0058 18.6 56.0938 18.184 57.1605 18.184C57.9712 18.184 58.5472 18.4187 58.8885 18.888C59.2512 19.336 59.4325 19.8907 59.4325 20.552C59.4325 21.192 59.2832 21.7467 58.9845 22.216C58.7072 22.664 58.3232 22.888 57.8325 22.888C57.4698 22.888 57.1605 22.728 56.9045 22.408C57.2245 22.2587 57.5018 21.928 57.7365 21.416C57.9712 20.8827 58.0885 20.3707 58.0885 19.88C58.0885 19.6027 58.0352 19.4 57.9285 19.272C57.8218 19.144 57.6405 19.08 57.3845 19.08C56.6592 19.08 55.8805 19.5173 55.0485 20.392C54.2378 21.2453 53.5445 22.2907 52.9685 23.528C52.4138 24.7653 52.1365 25.896 52.1365 26.92C52.1365 27.688 52.3178 28.328 52.6805 28.84C53.0432 29.3307 53.6405 29.576 54.4725 29.576C55.7738 29.576 57.0538 29.0427 58.3125 27.976C59.5925 26.9093 60.5738 25.512 61.2565 23.784L61.6725 24.104C61.1818 25.384 60.5098 26.536 59.6565 27.56C58.8032 28.5627 57.8538 29.352 56.8085 29.928C55.7845 30.504 54.7605 30.792 53.7365 30.792ZM62.8643 30.024C61.9896 30.024 61.3496 29.7573 60.9443 29.224C60.5389 28.6907 60.3362 27.9867 60.3362 27.112C60.3362 26.2373 60.5176 25.32 60.8803 24.36C61.2429 23.4 61.7123 22.6 62.2883 21.96C62.8643 21.32 63.4403 21 64.0163 21C64.2083 21 64.4323 21.0533 64.6883 21.16C64.4323 21.3733 64.1229 21.8427 63.7603 22.568C63.3976 23.2933 63.0776 24.072 62.8003 24.904C62.5443 25.7147 62.4163 26.376 62.4163 26.888C62.4163 28.104 62.8003 28.712 63.5683 28.712C64.0163 28.712 64.5496 28.4773 65.1683 28.008C65.7869 27.5387 66.3949 26.92 66.9923 26.152C66.3949 25.6613 65.9256 25.0213 65.5843 24.232C65.2643 23.4427 65.1043 22.6213 65.1043 21.768C65.1043 20.6587 65.3816 19.7093 65.9363 18.92C66.5123 18.1307 67.2803 17.736 68.2403 17.736C69.0509 17.736 69.6163 17.96 69.9363 18.408C70.2776 18.8347 70.4483 19.432 70.4483 20.2C70.4483 21.0107 70.2456 21.928 69.8403 22.952C69.4563 23.9547 68.9443 24.936 68.3043 25.896C68.6883 26.1093 69.0936 26.216 69.5203 26.216C70.1389 26.216 70.7789 26.0347 71.4403 25.672C72.1016 25.288 72.6029 24.7013 72.9443 23.912L73.3283 24.232C72.9229 25.1707 72.3469 25.864 71.6003 26.312C70.8536 26.76 70.0856 26.984 69.2963 26.984C68.7203 26.984 68.2083 26.8773 67.7603 26.664C66.9923 27.6667 66.1709 28.4773 65.2963 29.096C64.4429 29.7147 63.6323 30.024 62.8643 30.024ZM67.5683 25.32C68.1229 24.488 68.5709 23.6453 68.9123 22.792C69.2536 21.9173 69.4243 21.1173 69.4243 20.392C69.4243 19.7947 69.3283 19.3467 69.1363 19.048C68.9656 18.7493 68.7416 18.6 68.4643 18.6C68.1656 18.6 67.8563 18.7493 67.5363 19.048C67.2376 19.3253 66.9816 19.72 66.7683 20.232C66.5763 20.7227 66.4803 21.2667 66.4803 21.864C66.4803 22.5253 66.5656 23.1653 66.7363 23.784C66.9283 24.3813 67.2056 24.8933 67.5683 25.32ZM82.6798 29.64C81.9544 29.64 81.3998 29.448 81.0158 29.064C80.6318 28.7013 80.4398 28.2107 80.4398 27.592C80.4398 27.3147 80.4824 26.9947 80.5677 26.632C80.6744 26.248 80.7811 25.8747 80.8878 25.512C81.0158 25.128 81.1224 24.7227 81.2078 24.296C81.3144 23.8693 81.3678 23.4853 81.3678 23.144C81.3678 22.0987 80.9411 21.576 80.0878 21.576C79.2771 21.576 78.4238 22.0027 77.5278 22.856C76.6531 23.7093 75.8638 24.6587 75.1598 25.704C74.4771 26.7493 73.6984 28.008 72.8238 29.48C72.4611 29.48 72.1304 29.416 71.8317 29.288C71.5331 29.1813 71.2984 29.0107 71.1277 28.776C71.1277 28.6693 71.2664 28.2853 71.5437 27.624C72.0771 26.2587 72.5144 25.0213 72.8558 23.912C73.1971 22.7813 73.3784 21.7787 73.3997 20.904C73.5491 20.7333 73.7624 20.584 74.0398 20.456C74.3171 20.3067 74.5944 20.232 74.8718 20.232C75.4478 20.232 75.7358 20.5093 75.7358 21.064C75.7358 21.384 75.6398 21.9493 75.4478 22.76C75.2558 23.5493 75.0104 24.392 74.7118 25.288C75.7358 23.7093 76.8238 22.376 77.9758 21.288C79.1278 20.2 80.2584 19.656 81.3678 19.656C82.1571 19.656 82.7438 19.944 83.1278 20.52C83.5331 21.0747 83.7358 21.7467 83.7358 22.536C83.7358 23.0053 83.6718 23.4533 83.5438 23.88C83.4371 24.3067 83.2664 24.7973 83.0318 25.352C82.8398 25.8213 82.6904 26.2267 82.5838 26.568C82.4771 26.9093 82.4238 27.2507 82.4238 27.592C82.4238 28.4027 82.7438 28.808 83.3838 28.808C84.1091 28.808 84.8558 28.328 85.6238 27.368C86.4131 26.408 87.1598 25.224 87.8638 23.816L88.2158 24.232C86.6798 27.8373 84.8344 29.64 82.6798 29.64Z" fill="#1F2833"/>
<path d="M88.76 6.356C89.684 6.356 90.426 6.678 90.986 7.322C91.5553 7.966 91.84 8.93667 91.84 10.234C91.84 11.5127 91.5553 12.4833 90.986 13.146C90.426 13.8087 89.6793 14.14 88.746 14.14C88.1673 14.14 87.6867 14.0327 87.304 13.818C86.9307 13.594 86.6367 13.3373 86.422 13.048H86.338C86.3567 13.2067 86.3753 13.4073 86.394 13.65C86.4127 13.8927 86.422 14.1027 86.422 14.28V17.36H85.19V6.496H86.198L86.366 7.518H86.422C86.646 7.19133 86.94 6.916 87.304 6.692C87.668 6.468 88.1533 6.356 88.76 6.356ZM88.536 7.392C87.7707 7.392 87.2293 7.60667 86.912 8.036C86.604 8.46533 86.4407 9.11867 86.422 9.996V10.234C86.422 11.158 86.5713 11.872 86.87 12.376C87.178 12.8707 87.7427 13.118 88.564 13.118C89.0213 13.118 89.3947 12.992 89.684 12.74C89.9827 12.488 90.202 12.1473 90.342 11.718C90.4913 11.2793 90.566 10.78 90.566 10.22C90.566 9.36133 90.398 8.67533 90.062 8.162C89.7353 7.64867 89.2267 7.392 88.536 7.392ZM96.6453 6.37C97.5599 6.37 98.2366 6.57067 98.6753 6.972C99.1139 7.37333 99.3333 8.01267 99.3333 8.89V14H98.4373L98.1993 12.936H98.1433C97.8166 13.3467 97.4713 13.65 97.1073 13.846C96.7526 14.042 96.2579 14.14 95.6233 14.14C94.9419 14.14 94.3773 13.9627 93.9293 13.608C93.4813 13.244 93.2573 12.6793 93.2573 11.914C93.2573 11.1673 93.5513 10.5933 94.1393 10.192C94.7273 9.78133 95.6326 9.55733 96.8553 9.52L98.1293 9.478V9.03C98.1293 8.40467 97.9939 7.97067 97.7233 7.728C97.4526 7.48533 97.0699 7.364 96.5753 7.364C96.1833 7.364 95.8099 7.42467 95.4553 7.546C95.1006 7.658 94.7693 7.78867 94.4613 7.938L94.0833 7.014C94.4099 6.83667 94.7973 6.68733 95.2453 6.566C95.6933 6.43533 96.1599 6.37 96.6453 6.37ZM98.1153 10.332L97.0093 10.374C96.0759 10.4113 95.4273 10.5607 95.0633 10.822C94.7086 11.0833 94.5313 11.452 94.5313 11.928C94.5313 12.348 94.6573 12.656 94.9093 12.852C95.1706 13.048 95.5019 13.146 95.9033 13.146C96.5379 13.146 97.0653 12.9733 97.4853 12.628C97.9053 12.2733 98.1153 11.732 98.1153 11.004V10.332ZM105.263 6.356C106.159 6.356 106.836 6.57533 107.293 7.014C107.75 7.44333 107.979 8.14333 107.979 9.114V14H106.761V9.198C106.761 7.994 106.201 7.392 105.081 7.392C104.25 7.392 103.676 7.62533 103.359 8.092C103.042 8.55867 102.883 9.23067 102.883 10.108V14H101.651V6.496H102.645L102.827 7.518H102.897C103.14 7.126 103.476 6.83667 103.905 6.65C104.334 6.454 104.787 6.356 105.263 6.356ZM113.203 6.356C113.847 6.356 114.398 6.496 114.855 6.776C115.322 7.056 115.677 7.45267 115.919 7.966C116.171 8.47 116.297 9.06267 116.297 9.744V10.486H111.159C111.178 11.3353 111.393 11.984 111.803 12.432C112.223 12.8707 112.807 13.09 113.553 13.09C114.029 13.09 114.449 13.048 114.813 12.964C115.187 12.8707 115.569 12.74 115.961 12.572V13.65C115.579 13.818 115.201 13.9393 114.827 14.014C114.454 14.098 114.011 14.14 113.497 14.14C112.788 14.14 112.158 13.9953 111.607 13.706C111.066 13.4167 110.641 12.9873 110.333 12.418C110.035 11.8393 109.885 11.1347 109.885 10.304C109.885 9.48267 110.021 8.778 110.291 8.19C110.571 7.602 110.959 7.14933 111.453 6.832C111.957 6.51467 112.541 6.356 113.203 6.356ZM113.189 7.364C112.601 7.364 112.135 7.55533 111.789 7.938C111.453 8.31133 111.253 8.834 111.187 9.506H115.009C115 8.87133 114.851 8.358 114.561 7.966C114.272 7.56467 113.815 7.364 113.189 7.364ZM119.44 14H118.208V3.36H119.44V14Z" fill="#1F2833"/>
</svg>
