<svg width="15" height="18" viewBox="0 0 15 18" fill="none" xmlns="http://www.w3.org/2000/svg">
<path fill-rule="evenodd" clip-rule="evenodd" d="M3.83333 12.3333H10.8333C11.0654 12.3333 11.288 12.4211 11.4521 12.5774C11.6161 12.7337 11.7083 12.9457 11.7083 13.1667C11.7083 13.3877 11.6161 13.5996 11.4521 13.7559C11.288 13.9122 11.0654 14 10.8333 14H2.95833C2.72627 14 2.50371 13.9122 2.33962 13.7559C2.17552 13.5996 2.08333 13.3877 2.08333 13.1667V2.33334H1.20833C0.97627 2.33334 0.75371 2.24554 0.589616 2.08926C0.425521 1.93298 0.333334 1.72102 0.333334 1.50001C0.333334 1.27899 0.425521 1.06703 0.589616 0.910749C0.75371 0.754469 0.97627 0.666672 1.20833 0.666672H2.95833C3.1904 0.666672 3.41296 0.754469 3.57705 0.910749C3.74115 1.06703 3.83333 1.27899 3.83333 1.50001V9.00001H11.5115L12.5833 4.83334V3.16751C13.5852 3.16751 14.3333 3.91251 14.3333 4.83334C14.3333 4.95501 14.3185 5.07584 14.2896 5.19501L13.2825 9.36167C13.0987 10.1242 12.362 10.6667 11.5115 10.6667H3.89721L3.83333 10.6658V12.3333ZM3.39583 17.3333C3.04774 17.3333 2.7139 17.2016 2.46776 16.9672C2.22161 16.7328 2.08333 16.4149 2.08333 16.0833C2.08333 15.7518 2.22161 15.4339 2.46776 15.1995C2.7139 14.965 3.04774 14.8333 3.39583 14.8333C3.74393 14.8333 4.07777 14.965 4.32391 15.1995C4.57005 15.4339 4.70833 15.7518 4.70833 16.0833C4.70833 16.4149 4.57005 16.7328 4.32391 16.9672C4.07777 17.2016 3.74393 17.3333 3.39583 17.3333V17.3333ZM11.2708 17.3333C10.9227 17.3333 10.5889 17.2016 10.3428 16.9672C10.0966 16.7328 9.95833 16.4149 9.95833 16.0833C9.95833 15.7518 10.0966 15.4339 10.3428 15.1995C10.5889 14.965 10.9227 14.8333 11.2708 14.8333C11.6189 14.8333 11.9528 14.965 12.1989 15.1995C12.4451 15.4339 12.5833 15.7518 12.5833 16.0833C12.5833 16.4149 12.4451 16.7328 12.1989 16.9672C11.9528 17.2016 11.6189 17.3333 11.2708 17.3333ZM9.08333 3.16667H9.95833C10.1904 3.16667 10.413 3.25447 10.5771 3.41075C10.7411 3.56703 10.8333 3.77899 10.8333 4.00001C10.8333 4.22102 10.7411 4.43298 10.5771 4.58926C10.413 4.74554 10.1904 4.83334 9.95833 4.83334H9.08333V5.66667C9.08333 5.88769 8.99115 6.09965 8.82705 6.25593C8.66296 6.41221 8.4404 6.50001 8.20833 6.50001C7.97627 6.50001 7.75371 6.41221 7.58962 6.25593C7.42552 6.09965 7.33333 5.88769 7.33333 5.66667V4.83334H6.45833C6.22627 4.83334 6.00371 4.74554 5.83962 4.58926C5.67552 4.43298 5.58333 4.22102 5.58333 4.00001C5.58333 3.77899 5.67552 3.56703 5.83962 3.41075C6.00371 3.25447 6.22627 3.16667 6.45833 3.16667H7.33333V2.33334C7.33333 2.11232 7.42552 1.90036 7.58962 1.74408C7.75371 1.5878 7.97627 1.50001 8.20833 1.50001C8.4404 1.50001 8.66296 1.5878 8.82705 1.74408C8.99115 1.90036 9.08333 2.11232 9.08333 2.33334V3.16667Z" fill="#5185C4"/>
</svg>
