<svg width="51" height="51" viewBox="0 0 51 51" fill="none" xmlns="http://www.w3.org/2000/svg">
<circle cx="25.5" cy="25.5" r="25.5" fill="#D8E1F7"/>
<path d="M30 21H21V18.75H30V21ZM30 23.25H21V25.5H30V23.25ZM34.5 16.5V30L27.75 36.75H18.75C18.1533 36.75 17.581 36.5129 17.159 36.091C16.7371 35.669 16.5 35.0967 16.5 34.5V16.5C16.5 15.9033 16.7371 15.331 17.159 14.909C17.581 14.4871 18.1533 14.25 18.75 14.25H32.25C32.8467 14.25 33.419 14.4871 33.841 14.909C34.2629 15.331 34.5 15.9033 34.5 16.5ZM32.25 27.75V16.5H18.75V34.5H25.5V30C25.5 29.4033 25.7371 28.831 26.159 28.409C26.581 27.9871 27.1533 27.75 27.75 27.75H32.25Z" fill="#3F6AD8"/>
</svg>
