<svg width="15" height="17" viewBox="0 0 15 17" fill="none" xmlns="http://www.w3.org/2000/svg">
<path d="M10.9325 4.87783V3.98425C10.9325 3.90233 10.8654 3.83532 10.7835 3.83532H3.63486C3.55295 3.83532 3.48593 3.90233 3.48593 3.98425V4.87783C3.48593 4.95974 3.55295 5.02676 3.63486 5.02676H10.7835C10.8654 5.02676 10.9325 4.95974 10.9325 4.87783ZM3.63486 6.51607C3.55295 6.51607 3.48593 6.58309 3.48593 6.665V7.55858C3.48593 7.64049 3.55295 7.70751 3.63486 7.70751H7.06027C7.14218 7.70751 7.2092 7.64049 7.2092 7.55858V6.665C7.2092 6.58309 7.14218 6.51607 7.06027 6.51607H3.63486ZM6.31562 14.9307H1.99663V1.82475H12.4218V8.22877C12.4218 8.31068 12.4888 8.3777 12.5707 8.3777H13.6132C13.6951 8.3777 13.7621 8.31068 13.7621 8.22877V1.0801C13.7621 0.750589 13.4959 0.484375 13.1664 0.484375H1.25197C0.922464 0.484375 0.65625 0.750589 0.65625 1.0801V15.6753C0.65625 16.0048 0.922464 16.271 1.25197 16.271H6.31562C6.39753 16.271 6.46455 16.204 6.46455 16.1221V15.0796C6.46455 14.9977 6.39753 14.9307 6.31562 14.9307ZM14.6129 15.8894L12.876 14.1525C13.2912 13.6033 13.5388 12.9182 13.5388 12.1754C13.5388 10.3659 12.0718 8.89896 10.2623 8.89896C8.45277 8.89896 6.9858 10.3659 6.9858 12.1754C6.9858 13.9849 8.45277 15.4519 10.2623 15.4519C10.9287 15.4519 11.5468 15.2527 12.0643 14.912L13.8273 16.675C13.8571 16.7048 13.8943 16.7178 13.9316 16.7178C13.9688 16.7178 14.0079 16.7029 14.0358 16.675L14.6129 16.0979C14.6266 16.0842 14.6375 16.068 14.645 16.0501C14.6524 16.0322 14.6562 16.013 14.6562 15.9936C14.6562 15.9743 14.6524 15.9551 14.645 15.9372C14.6375 15.9193 14.6266 15.9031 14.6129 15.8894V15.8894ZM10.2623 14.2605C9.10993 14.2605 8.17725 13.3278 8.17725 12.1754C8.17725 11.0231 9.10993 10.0904 10.2623 10.0904C11.4146 10.0904 12.3473 11.0231 12.3473 12.1754C12.3473 13.3278 11.4146 14.2605 10.2623 14.2605Z" fill="#5185C4"/>
</svg>
