<svg width="15" height="15" viewBox="0 0 15 15" fill="none" xmlns="http://www.w3.org/2000/svg">
<path fill-rule="evenodd" clip-rule="evenodd" d="M4.70833 9.25H13.4583C13.6904 9.25 13.913 9.34219 14.0771 9.50628C14.2411 9.67038 14.3333 9.89294 14.3333 10.125C14.3333 10.3571 14.2411 10.5796 14.0771 10.7437C13.913 10.9078 13.6904 11 13.4583 11H4.70833C4.47627 11 4.25371 10.9078 4.08962 10.7437C3.92552 10.5796 3.83333 10.3571 3.83333 10.125C3.83333 9.89294 3.92552 9.67038 4.08962 9.50628C4.25371 9.34219 4.47627 9.25 4.70833 9.25V9.25ZM4.70833 12.75H13.4583C13.6904 12.75 13.913 12.8422 14.0771 13.0063C14.2411 13.1704 14.3333 13.3929 14.3333 13.625C14.3333 13.8571 14.2411 14.0796 14.0771 14.2437C13.913 14.4078 13.6904 14.5 13.4583 14.5H4.70833C4.47627 14.5 4.25371 14.4078 4.08962 14.2437C3.92552 14.0796 3.83333 13.8571 3.83333 13.625C3.83333 13.3929 3.92552 13.1704 4.08962 13.0063C4.25371 12.8422 4.47627 12.75 4.70833 12.75V12.75ZM9.95833 5.75H13.4583C13.6904 5.75 13.913 5.84219 14.0771 6.00628C14.2411 6.17038 14.3333 6.39294 14.3333 6.625C14.3333 6.85707 14.2411 7.07962 14.0771 7.24372C13.913 7.40781 13.6904 7.5 13.4583 7.5H9.95833C9.72627 7.5 9.50371 7.40781 9.33962 7.24372C9.17552 7.07962 9.08333 6.85707 9.08333 6.625C9.08333 6.39294 9.17552 6.17038 9.33962 6.00628C9.50371 5.84219 9.72627 5.75 9.95833 5.75V5.75ZM3.60846 7.42475L0.333334 4.1505L1.57058 2.91238L3.60846 4.95025L8.05783 0.5L9.29596 1.73725L3.60846 7.42475V7.42475Z" fill="#5185C4"/>
</svg>
