<svg width="51" height="51" viewBox="0 0 51 51" fill="none" xmlns="http://www.w3.org/2000/svg">
<circle cx="25.5" cy="25.5" r="25.5" fill="#D7F3E5"/>
<path d="M34.4 22.6H35.6V35.8H16.4V22.6H17.6V20.2C17.6 16.888 20.288 14.2 23.6 14.2C24.452 14.2 25.268 14.38 26 14.704C26.7561 14.3705 27.5736 14.1989 28.4 14.2C31.712 14.2 34.4 16.888 34.4 20.2V22.6ZM20 20.2V22.6H22.4V20.2C22.4 18.844 22.868 17.608 23.624 16.6H23.6C21.62 16.6 20 18.22 20 20.2ZM32 22.6V20.2C32 18.22 30.38 16.6 28.4 16.6H28.376C29.1651 17.6347 29.5948 18.8987 29.6 20.2V22.6H32ZM26 17.536C25.268 18.196 24.8 19.144 24.8 20.2V22.6H27.2V20.2C27.2 19.144 26.732 18.196 26 17.536V17.536Z" fill="#43C683"/>
</svg>
