<svg width="129" height="129" viewBox="0 0 129 129" fill="none" xmlns="http://www.w3.org/2000/svg">
<path d="M114.588 107.647L81.8722 74.9309C86.949 68.3675 89.6953 60.3428 89.6953 51.9023C89.6953 41.799 85.7522 32.3256 78.622 25.1827C71.4917 18.0398 61.9931 14.1094 51.9023 14.1094C41.8116 14.1094 32.313 18.0524 25.1827 25.1827C18.0398 32.313 14.1094 41.799 14.1094 51.9023C14.1094 61.9931 18.0524 71.4917 25.1827 78.622C32.313 85.7648 41.799 89.6953 51.9023 89.6953C60.3428 89.6953 68.3549 86.949 74.9183 81.8848L107.634 114.588C107.73 114.684 107.844 114.76 107.97 114.812C108.095 114.864 108.229 114.891 108.365 114.891C108.501 114.891 108.635 114.864 108.76 114.812C108.886 114.76 109 114.684 109.096 114.588L114.588 109.108C114.684 109.012 114.76 108.898 114.812 108.773C114.864 108.648 114.891 108.513 114.891 108.378C114.891 108.242 114.864 108.108 114.812 107.982C114.76 107.857 114.684 107.743 114.588 107.647V107.647ZM71.857 71.857C66.5156 77.1858 59.4357 80.1211 51.9023 80.1211C44.3689 80.1211 37.2891 77.1858 31.9477 71.857C26.6188 66.5156 23.6836 59.4357 23.6836 51.9023C23.6836 44.3689 26.6188 37.2765 31.9477 31.9477C37.2891 26.6188 44.3689 23.6836 51.9023 23.6836C59.4357 23.6836 66.5282 26.6063 71.857 31.9477C77.1858 37.2891 80.1211 44.3689 80.1211 51.9023C80.1211 59.4357 77.1858 66.5282 71.857 71.857Z" fill="black"/>
</svg>
