<svg width="15" height="15" viewBox="0 0 15 15" fill="none" xmlns="http://www.w3.org/2000/svg">
<path d="M12.577 7.90186C12.604 7.67687 12.622 7.44287 12.622 7.19987C12.622 6.95688 12.604 6.72288 12.568 6.49788L14.089 5.3099C14.1542 5.25524 14.1988 5.17985 14.2151 5.09632C14.2315 5.01279 14.2188 4.92617 14.179 4.85091L12.739 2.35795C12.649 2.19596 12.46 2.14196 12.298 2.19596L10.507 2.91594C10.1351 2.62886 9.72652 2.39277 9.29206 2.21396L9.02206 0.305987C9.00904 0.220146 8.96544 0.141901 8.89929 0.0856698C8.83313 0.0294389 8.74889 -0.000988971 8.66207 -7.49434e-06H5.78212C5.69628 -0.000878583 5.61311 0.0298042 5.5484 0.0862141C5.4837 0.142624 5.44196 0.220833 5.43112 0.305987L5.16113 2.21396C4.7274 2.39426 4.31897 2.63024 3.94615 2.91594L2.15518 2.19596C2.07453 2.16486 1.98532 2.16415 1.90419 2.19396C1.82306 2.22376 1.75553 2.28205 1.71418 2.35795L0.274207 4.85091C0.229673 4.92497 0.214223 5.01293 0.230851 5.09773C0.247479 5.18254 0.295001 5.25815 0.364206 5.3099L1.88518 6.49788C1.84918 6.72288 1.82218 6.96588 1.82218 7.19987C1.82218 7.43387 1.84018 7.67687 1.87618 7.90186L0.355206 9.08984C0.289954 9.1445 0.245422 9.21989 0.229043 9.30342C0.212665 9.38696 0.225429 9.47358 0.265207 9.54883L1.70518 12.0418C1.79518 12.2038 1.98418 12.2578 2.14618 12.2038L3.93715 11.4838C4.30905 11.7709 4.71766 12.007 5.15213 12.1858L5.42212 14.0938C5.45812 14.2738 5.60212 14.3998 5.78212 14.3998H8.66207C8.84206 14.3998 8.99506 14.2738 9.01306 14.0938L9.28306 12.1858C9.71679 12.0055 10.1252 11.7695 10.498 11.4838L12.289 12.2038C12.451 12.2668 12.64 12.2038 12.73 12.0418L14.17 9.54883C14.2145 9.47477 14.23 9.38682 14.2133 9.30201C14.1967 9.21721 14.1492 9.1416 14.08 9.08984L12.577 7.90186ZM7.22209 9.89983C5.73712 9.89983 4.52214 8.68485 4.52214 7.19987C4.52214 5.7149 5.73712 4.49992 7.22209 4.49992C8.70707 4.49992 9.92205 5.7149 9.92205 7.19987C9.92205 8.68485 8.70707 9.89983 7.22209 9.89983Z" fill="#5185C4"/>
</svg>
