


<svg   xmlns="http://www.w3.org/2000/svg">

<symbol id="diskTop"  xmlns="http://www.w3.org/2000/svg"  viewBox="0 0 100 100" >
  <path d="m50,55.022c-2.773,0-5.022-2.249-5.022-5.022 0-2.774 2.249-5.022 5.022-5.022s5.022,2.249 5.022,5.022c0,2.773-2.249,5.022-5.022,5.022zm45-5.022c0,24.854-20.146,45-45,45-24.853,0-45-20.146-45-45 0-24.853 20.147-45 45-45 24.854,0 45,20.147 45,45zm-2.896,0c0-23.253-18.851-42.103-42.104-42.103s-42.103,18.85-42.103,42.103 18.85,42.104 42.103,42.104 42.104-18.851 42.104-42.104zm-1.788,0c0,9.074-2.998,17.448-8.058,24.186-0.475,0.631-0.969,1.247-1.479,1.85-3.861,4.561-8.717,8.253-14.233,10.74-0.931,0.419-1.88,0.803-2.846,1.151-4.277,1.546-8.891,2.39-13.701,2.39s-9.423-0.844-13.701-2.39c-0.744-0.269-1.478-0.56-2.201-0.87-5.565-2.391-10.483-5.999-14.42-10.488-0.52-0.594-1.023-1.201-1.508-1.824-5.317-6.832-8.485-15.418-8.485-24.745 0-0.438 0.009-0.874 0.023-1.308 0.018-0.557 0.045-1.111 0.086-1.662 0.449-6.175 2.289-11.963 5.208-17.055 0.393-0.686 0.808-1.357 1.239-2.017 5.092-7.783 12.8-13.698 21.877-16.495 0.979-0.301 1.975-0.566 2.984-0.793 2.863-0.645 5.841-0.987 8.898-0.987 3.07,0 6.061,0.345 8.935,0.995 0.767,0.174 1.524,0.369 2.273,0.585 9.14,2.64 16.943,8.425 22.163,16.108 0.443,0.652 0.866,1.318 1.271,1.997 3.011,5.045 4.95,10.802 5.506,16.959 0.05,0.55 0.091,1.103 0.118,1.66 0.034,0.668 0.051,1.339 0.051,2.013zm-8.573-18.986l-16.021,9.083-1.206,.684c-1.477,1.163-2.148,3.165-1.534,5.056 0.561,1.724 2.038,2.892 3.717,3.142l2.354-.266 17.783-2.009c-0.503-5.701-2.299-11.029-5.093-15.69zm-23.57,4.995c-0.007,0.043-0.012,0.086-0.016,0.129-0.054,0.611 0.203,1.234 0.736,1.621 0.528,0.384 1.195,0.438 1.757,0.204 0.047-0.02 0.093-0.041 0.138-0.064l19.519-9.098c-4.685-6.685-11.523-11.749-19.51-14.183l-2.624,21.391zm-1.989,13.991c0-3.415-2.769-6.184-6.184-6.184s-6.184,2.769-6.184,6.184 2.769,6.184 6.184,6.184 6.184-2.769 6.184-6.184zm-6.236,7.526c-0.976,0-1.767,0.791-1.767,1.767 0,0.977 0.791,1.768 1.767,1.768s1.767-0.791 1.767-1.768c0-0.976-0.791-1.767-1.767-1.767zm-5.441-13.325c0.976,0 1.767-0.792 1.767-1.768 0-0.976-0.791-1.767-1.767-1.767s-1.767,0.792-1.767,1.767c7.10543e-15,0.977 0.791,1.768 1.767,1.768zm-3.394,6.913c-0.976,0-1.767,0.791-1.767,1.767 0,0.977 0.791,1.768 1.767,1.768s1.767-0.791 1.767-1.768c0-0.976-0.791-1.767-1.767-1.767zm16.147-8.68c0-0.976-0.791-1.767-1.767-1.767-0.977,0-1.768,0.792-1.768,1.767 0,0.976 0.791,1.768 1.768,1.768 0.976-0.001 1.767-0.792 1.767-1.768zm-.14,10.447c0,0.977 0.791,1.768 1.768,1.768 0.976,0 1.767-0.791 1.767-1.768 0-0.976-0.791-1.767-1.767-1.767-0.977,0-1.768,0.791-1.768,1.767zm-15.351-38.944l3.631,17.762 .389,1.901c0.715,1.626 2.339,2.762 4.23,2.762 1.89,0 3.514-1.136 4.23-2.761l.389-1.903 3.63-17.754c-2.658-0.607-5.426-0.928-8.268-0.928-2.829,1.77636e-15-5.584,0.319-8.231,0.921zm-22.444,15.395l19.683,8.76c0.041,0.02 0.082,0.038 0.124,0.055 0.568,0.229 1.238,0.165 1.763-0.23 0.522-0.393 0.768-1.014 0.709-1.62-0.005-0.051-0.012-0.102-0.021-0.152l-2.995-21.332c-7.932,2.571-14.69,7.746-19.263,14.519zm-6.213,18.015l18.165,1.732 1.697,.162c1.812-0.167 3.43-1.401 3.995-3.249 0.542-1.772-0.036-3.62-1.328-4.784l-1.879-1.023-15.833-8.616c-2.71,4.704-4.412,10.062-4.817,15.778zm22.045,9.174c0.037-0.036 0.071-0.073 0.104-0.112 0.396-0.462 0.551-1.112 0.349-1.733-0.202-0.624-0.712-1.06-1.307-1.199-0.046-0.011-0.093-0.02-0.141-0.027l-21.139-4.112c-0.004,0.221-0.008,0.441-0.008,0.663 0,8.363 2.777,16.077 7.458,22.272l14.684-15.752zm7.879,10.876l.704-1.55c0.433-1.768-0.208-3.701-1.771-4.837-1.495-1.086-3.422-1.145-4.941-0.312l-1.604,1.468-13.287,12.153c3.635,4.161 8.187,7.5 13.34,9.703l7.559-16.625zm8.072,21.27c0-0.648-0.496-1.174-1.108-1.174-0.612,0-1.109,0.525-1.109,1.174s0.497,1.174 1.109,1.174c0.612-1.42109e-14 1.108-0.526 1.108-1.174zm10.954-3.696l-10.45-18.845c-0.021-0.041-0.043-0.081-0.066-0.121-0.316-0.523-0.89-0.875-1.546-0.875-0.655,0-1.227,0.35-1.544,0.872-0.025,0.041-0.048,0.083-0.069,0.126l-10.449,18.843c3.781,1.304 7.838,2.014 12.062,2.014s8.281-0.711 12.062-2.014zm16.22-11.143l-13.683-12.084-1.244-1.099c-1.567-0.942-3.612-0.899-5.162,0.27-1.479,1.114-2.099,2.947-1.739,4.647l.922,1.937 7.738,16.265c5.11-2.291 9.604-5.708 13.168-9.936zm8.702-23.828c0-0.438-0.011-0.874-0.025-1.308l-21.062,4.48c-0.049,0.009-0.096,0.019-0.143,0.03-0.592,0.15-1.094,0.595-1.285,1.222-0.191,0.626-0.024,1.274 0.382,1.729 0.032,0.037 0.066,0.072 0.103,0.106l14.956,15.494c4.447-6.105 7.074-13.622 7.074-21.753z"/>
</symbol>





<symbol id="heavy" viewBox="0 0 51 47"  xmlns="http://www.w3.org/2000/svg">
<path d="M33.1471 23.2898C33.1471 18.6611 31.3004 14.5322 28.4363 11.8701C27.8165 12.014 27.1968 12.2311 26.582 12.5278C32.8567 17.5427 33.3452 28.4537 26.582 34.0532C27.193 34.3485 27.8102 34.5644 28.4262 34.7095C28.7683 34.394 29.1003 34.0569 29.4146 33.6985C31.8217 30.953 33.1471 27.2571 33.1471 23.2898Z" />
<path d="M29.0179 11.7554C31.8353 14.5122 33.6302 18.6588 33.6302 23.29C33.6302 27.3734 32.2632 31.183 29.7791 34.0167C29.5317 34.2995 29.2729 34.5658 29.0078 34.8233C34.7145 35.741 40.1953 30.5253 40.1953 23.29C40.1953 16.0333 34.7082 10.8529 29.0179 11.7554Z" />
<path d="M44.5844 6.8238C40.8216 2.47909 35.8344 0.0631129 30.5216 0.00378652L30.5203 0H27.9112H24.262H22.5529H19.7002L19.5929 0.010098C18.8822 0.0328187 18.1753 0.0984562 17.4748 0.204486L17.4495 0.207011H17.4634C16.7061 0.32314 15.955 0.485972 15.2166 0.700557L15.2292 0.759883C19.0286 0.296632 21.7879 0.165357 24.2027 0.0921452C24.6381 0.191864 25.013 0.460726 25.3324 0.715704C25.2087 0.751047 25.0862 0.788915 24.9638 0.826783C24.4589 0.9366 23.8858 1.06914 23.4314 1.17517C22.8192 0.58569 22.4885 0.392564 22.2903 0.277698C18.65 0.542773 15.8616 0.969419 14.5224 1.17517C14.7117 1.03884 14.973 0.870962 15.1712 0.745998C13.6022 1.20546 12.1076 1.87825 10.7091 2.73533C14.3355 1.85805 16.9926 1.40616 19.3227 1.04894C19.8908 1.58162 20.4133 2.18246 20.8602 2.70882C20.787 2.75426 20.715 2.7997 20.6431 2.84514C20.1407 3.05468 19.5373 3.31723 19.0703 3.52045C18.7497 3.12789 18.6146 2.96758 18.4265 2.7429C18.0113 2.25188 17.7373 1.95146 17.572 1.77096C15.5044 2.17741 14.2484 2.47782 13.1414 2.7429C11.7996 3.07488 11.3566 3.19353 10.1612 3.52045C10.3039 3.28946 10.5058 2.9903 10.6598 2.76562C9.26502 3.62775 7.96868 4.6729 6.79351 5.87332C10.1877 4.64135 12.706 3.91049 14.92 3.30587C15.5094 4.0241 16.0825 4.7499 16.9497 5.8506C16.9055 5.89604 16.8613 5.93895 16.8184 5.9844C16.3577 6.27977 15.7884 6.65718 15.3529 6.94877C15.3403 6.93362 13.9316 5.14499 13.3939 4.46968C10.064 5.51862 7.61776 6.48551 6.4426 6.94877C6.52843 6.63699 6.65466 6.22423 6.75185 5.91497C5.58047 7.12043 4.53153 8.48115 3.62901 9.9681C6.73797 8.44329 9.08073 7.47639 11.1496 6.65844C12.4686 8.32716 13.1515 9.16909 13.7865 9.94538C13.7574 9.99335 13.7284 10.0401 13.6994 10.088C13.3017 10.4541 12.8069 10.9236 12.4308 11.2834C11.9473 10.704 11.705 10.4112 11.3528 9.98072C10.7482 9.24356 10.242 8.61243 9.90625 8.19336C8.0949 8.99111 7.01819 9.51621 6.06644 9.98072C4.91273 10.5538 4.53658 10.7494 3.52046 11.2834C3.53686 10.9034 3.57095 10.3985 3.59745 10.0199C2.69872 11.5119 1.94767 13.1301 1.36829 14.848C4.14023 13.0909 6.27219 11.9284 8.1618 10.9337C9.77371 12.8688 10.863 14.0881 11.5207 14.8228C11.503 14.8758 11.4853 14.9275 11.4677 14.9806C11.1483 15.4009 10.7532 15.9411 10.4528 16.3539C8.91411 14.6928 7.83614 13.4456 7.25676 12.7766C4.46589 14.3835 2.49171 15.7152 1.54375 16.3552C1.47685 15.9222 1.40238 15.3428 1.34684 14.9086C0.771243 16.6278 0.367319 18.4467 0.160307 20.3351C2.54346 18.4063 4.42802 17.0898 6.10936 15.955C8.07597 18.092 9.52505 19.531 10.3127 20.3136C10.3077 20.3641 10.3026 20.4159 10.2963 20.4664C10.0666 20.9296 9.78507 21.5279 9.57301 21.9849C8.80682 21.254 8.55815 21.0117 7.88915 20.354C6.8806 19.3593 6.04877 18.501 5.60319 18.039C4.168 19.0968 3.33743 19.7645 2.60531 20.354C1.71668 21.0798 1.43267 21.3234 0.665213 21.9849C0.504906 21.5128 0.304206 20.8791 0.153997 20.4032C0.0530154 21.3499 0 22.313 0 23.29C0 24.2658 0.0517531 25.2289 0.153997 26.1731C2.79213 23.5778 4.44065 22.1565 5.14373 21.5494C7.38803 23.7003 8.64777 24.7921 10.3013 26.1503C10.3064 26.2021 10.3114 26.2526 10.3177 26.3031C10.189 26.7587 10.035 27.3432 9.91887 27.7875C7.55087 25.9951 5.82788 24.4576 5.09324 23.8013C3.16828 25.5924 1.60055 27.1879 1.00981 27.7875C0.747261 27.3293 0.411498 26.707 0.160307 26.2387C0.367319 28.1283 0.771244 29.9472 1.34557 31.6664C3.10896 29.7087 4.36112 28.4211 5.39618 27.3684C7.84245 29.253 9.76614 30.5367 11.4816 31.6412C11.4992 31.6955 11.5156 31.7472 11.5346 31.8002C11.4954 32.2105 11.4563 32.7293 11.4273 33.1281C10.3607 32.4894 10.0148 32.2723 9.08199 31.6828C7.62408 30.7576 6.44638 29.9346 5.81273 29.4941C4.86477 30.5026 4.29675 31.13 3.79689 31.6828C3.21877 32.3266 3.01681 32.5563 2.51822 33.1281C2.16605 32.7141 1.70784 32.1511 1.36577 31.7283C1.94515 33.4462 2.6962 35.0657 3.59493 36.5564C5.16519 34.6441 6.20277 33.4588 6.8238 32.7507C9.6437 34.4535 11.8072 35.5757 13.7233 36.5325C13.7511 36.5792 13.7801 36.6259 13.8092 36.6713C13.847 37.0247 13.9038 37.4703 13.9493 37.8111C10.8681 36.4024 8.774 35.2614 7.64932 34.6492C6.58397 35.9089 5.76602 36.9137 5.04022 37.8124C4.61105 37.4577 4.04808 36.973 3.62649 36.6082C4.52774 38.0964 5.57668 39.4571 6.74807 40.6626C7.91187 39.187 8.41299 38.5571 9.27512 37.4893C12.4118 38.9459 14.7748 39.8661 16.8588 40.6386C16.9017 40.6828 16.9446 40.7257 16.9888 40.7699C17.0911 41.0514 17.2261 41.3972 17.3322 41.6623C16.0535 41.2357 15.6028 41.0741 14.4895 40.6727C12.7186 40.0277 11.2443 39.4218 10.4528 39.0936C10.035 39.62 9.61972 40.1463 9.20569 40.6727C8.9444 41.0034 8.68438 41.3328 8.42435 41.6623C7.92954 41.3833 7.27822 40.9958 6.79098 40.703C7.96489 41.9047 9.2625 42.9498 10.6573 43.8119C11.2884 43.0621 11.9107 42.2808 12.6012 41.4086C15.9878 42.5547 18.5073 43.23 20.7213 43.7854C20.7958 43.8309 20.8703 43.8763 20.9448 43.9218C21.095 44.1124 21.2818 44.337 21.4295 44.51C17.9393 43.7741 15.3289 43.018 14.0742 42.6557C13.2462 43.6819 12.8801 44.1023 12.5204 44.51C11.9726 44.3194 11.2493 44.0467 10.7078 43.8422C12.1051 44.7006 13.5996 45.3734 15.1686 45.8341C15.7228 45.3696 16.2226 44.818 16.6493 44.3358C20.2076 45.1133 22.8394 45.5059 25.143 45.8063C25.2768 45.8467 25.4119 45.8858 25.547 45.925C25.7224 46.0121 25.9231 46.1055 26.0834 46.1762C24.6609 46.0449 24.19 45.9893 22.9151 45.8366C20.9372 45.5942 19.2596 45.3102 18.3584 45.1575C17.9948 45.5261 17.8017 45.6914 17.63 45.8366C17.418 46.0095 17.3473 46.0588 17.1744 46.1762C16.5874 46.0891 15.8086 45.9515 15.2254 45.848C16.7957 46.3036 18.4379 46.546 20.1306 46.5485C20.5774 46.5409 20.9511 46.3112 21.2679 46.0979C22.8924 46.2557 24.3264 46.3592 25.6252 46.4261H23.1537L22.7523 46.5372C22.6943 46.5435 22.6412 46.5473 22.5933 46.5498H22.7044L22.5933 46.5788H22.693H30.769L30.7563 46.5738C35.9834 46.4475 40.881 44.0379 44.5895 39.7575C48.399 35.3586 50.4969 29.5105 50.4969 23.29C50.4969 17.0696 48.3927 11.2215 44.5844 6.8238ZM41.5222 16.08C35.6501 6.32521 24.9423 6.40851 19.1145 16.08C23.7432 5.69029 36.6562 5.17023 41.5222 16.08ZM19.3139 30.899C25.2869 40.1905 35.4886 39.9545 41.3227 30.899C36.5299 40.9479 24.1774 41.069 19.3139 30.899ZM30.3196 36.3431C24.0878 36.3431 19.0185 30.4875 19.0185 23.29C19.0185 16.0926 24.0878 10.237 30.3196 10.237C36.5501 10.237 41.6181 16.0926 41.6181 23.29C41.6181 30.4875 36.5501 36.3431 30.3196 36.3431Z" />
</symbol>


<symbol viewBox="0 0 40 47" id="lite" xmlns="http://www.w3.org/2000/svg">
<path fill-rule="evenodd" clip-rule="evenodd" d="M25.5115 46.3846C22.9953 46.3846 12.1345 45.1697 11.6055 45.0624C5.06584 43.7355 0 34.4499 0 23.1923C0 11.9423 5.05905 2.66153 11.5923 1.32489C12.1256 1.21579 22.9953 0 25.5115 0C33.1968 0 39.4269 10.3835 39.4269 23.1923C39.4269 36.0011 33.1968 46.3846 25.5115 46.3846ZM27.8308 37.1077C31.6734 37.1077 34.7885 30.8776 34.7885 23.1923C34.7885 15.5071 31.6734 9.27692 27.8308 9.27692C23.9881 9.27692 20.8731 15.5071 20.8731 23.1923C20.8731 30.8776 23.9881 37.1077 27.8308 37.1077Z" />
</symbol>



<symbol viewBox="0 0 42.02 42.47"  id="sun">
    <path class="cls-1" d="M21,32.93A11.71,11.71,0,1,0,9.43,21.22,11.64,11.64,0,0,0,21,32.93Z" transform="translate(0 0)"/>
    <path class="cls-1" d="M31.63,21.22a10.83,10.83,0,0,1-6.95,10.11,10.68,10.68,0,0,1-11.89-3.26,10.91,10.91,0,0,1-.88-12.42,10.68,10.68,0,0,1,11.15-5,10.86,10.86,0,0,1,8.47,8.93,11.28,11.28,0,0,1,.1,1.64.94.94,0,0,0,1.88,0A12.8,12.8,0,0,0,25.23,9.33a12.5,12.5,0,0,0-13.85,3.82,12.86,12.86,0,0,0-1.09,14.59,12.61,12.61,0,0,0,13.2,5.87,12.64,12.64,0,0,0,9.85-10.32,14.21,14.21,0,0,0,.17-2.07A.94.94,0,0,0,31.63,21.22Z" transform="translate(0 0)"/>
    <path class="cls-1" d="M21,6.17a1.51,1.51,0,0,1-1.5-1.51V2.4a1.51,1.51,0,0,1,3,0V4.66A1.52,1.52,0,0,1,21,6.17Z" transform="translate(0 0)"/>
    <path class="cls-1" d="M21,5.23c-.77,0-.57-1.14-.57-1.65s-.22-1.74.57-1.74.57,1.14.57,1.65.23,1.7-.57,1.74c-1.19.06-1.2,1.93,0,1.87a2.51,2.51,0,0,0,2.13-1.24,3,3,0,0,0,.32-1.56,6.89,6.89,0,0,0-.27-3A2.45,2.45,0,0,0,19,1c-.61.85-.45,2-.45,3a3.82,3.82,0,0,0,.17,1.5A2.45,2.45,0,0,0,21,7.11.94.94,0,0,0,21,5.23Z" transform="translate(0 0)"/>
    <path class="cls-1" d="M21,41.52A1.5,1.5,0,0,1,19.5,40V37.76a1.51,1.51,0,1,1,3,0V40A1.51,1.51,0,0,1,21,41.52Z" transform="translate(0 0)"/>
    <path class="cls-1" d="M21,40.59c-.77,0-.57-1.14-.57-1.65s-.22-1.74.57-1.74.57,1.14.57,1.65.23,1.7-.57,1.74c-1.2,0-1.2,1.93,0,1.87a2.52,2.52,0,0,0,2.13-1.25,3,3,0,0,0,.32-1.56,6.86,6.86,0,0,0-.27-3A2.45,2.45,0,0,0,19,36.38c-.61.85-.45,2-.45,3a3.82,3.82,0,0,0,.17,1.5A2.46,2.46,0,0,0,21,42.47.94.94,0,0,0,21,40.59Z" transform="translate(0 0)"/>
    <path class="cls-1" d="M6.12,21.21h0a1.52,1.52,0,0,1-1.51,1.52H2.43A1.52,1.52,0,0,1,.92,21.22h0a1.52,1.52,0,0,1,1.51-1.52H4.61A1.52,1.52,0,0,1,6.12,21.21Z" transform="translate(0 0)"/>
    <path class="cls-1" d="M5.19,21.21c0,.79-1.09.6-1.62.6s-1.71.22-1.72-.59,1.11-.59,1.62-.59,1.69-.23,1.72.58c0,1.19,1.92,1.2,1.87,0A2.54,2.54,0,0,0,5.8,19.07a3,3,0,0,0-1.52-.32A6.75,6.75,0,0,0,1.34,19a2.47,2.47,0,0,0-.41,4.13c.88.69,2,.53,3.08.53a3.59,3.59,0,0,0,1.68-.27,2.47,2.47,0,0,0,1.36-2.2A.93.93,0,0,0,5.19,21.21Z" transform="translate(0 0)"/>
    <path class="cls-1" d="M41.09,21.21h0a1.53,1.53,0,0,1-1.52,1.52H37.39a1.53,1.53,0,0,1-1.52-1.52h0a1.53,1.53,0,0,1,1.52-1.52h2.17A1.53,1.53,0,0,1,41.09,21.21Z" transform="translate(0 0)"/>
    <path class="cls-1" d="M40.15,21.21c0,.79-1.09.6-1.62.6s-1.7.22-1.71-.59,1.1-.59,1.62-.59,1.67-.23,1.71.58c.06,1.19,1.93,1.2,1.87,0a2.55,2.55,0,0,0-1.25-2.14,3,3,0,0,0-1.53-.32A6.77,6.77,0,0,0,36.3,19a2.47,2.47,0,0,0-.41,4.13c.88.69,2,.53,3.08.53a3.65,3.65,0,0,0,1.69-.27A2.46,2.46,0,0,0,42,21.21.93.93,0,0,0,40.15,21.21Z" transform="translate(0 0)"/>
    <path class="cls-1" d="M32.18,11.28a1.53,1.53,0,0,1,.14-2.15L34,7.66a1.52,1.52,0,0,1,2.13.14A1.54,1.54,0,0,1,36,10L34.3,11.42A1.5,1.5,0,0,1,32.18,11.28Z" transform="translate(0 0)"/>
    <path class="cls-1" d="M32.83,10.61c-.47-.55.62-1.24,1-1.55s1.13-1.28,1.62-.6-.51,1.15-.89,1.5-1.1,1.28-1.7.65c-.83-.88-2.15.45-1.32,1.32a2.47,2.47,0,0,0,2.37.72,3.25,3.25,0,0,0,1.34-.81,6.64,6.64,0,0,0,2-2.16,2.47,2.47,0,0,0-2.48-3.33c-1.09.11-1.86,1-2.64,1.7a3.76,3.76,0,0,0-1,1.21,2.51,2.51,0,0,0,.43,2.66.93.93,0,0,0,1.32,0A.91.91,0,0,0,32.83,10.61Z" transform="translate(0 0)"/>
    <path class="cls-1" d="M5.93,34.63a1.53,1.53,0,0,1,.14-2.15L7.71,31a1.52,1.52,0,0,1,2.13.14A1.55,1.55,0,0,1,9.7,33.3L8.05,34.77A1.5,1.5,0,0,1,5.93,34.63Z" transform="translate(0 0)"/>
    <path class="cls-1" d="M6.59,34c-.48-.55.62-1.24,1-1.55s1.14-1.28,1.62-.6-.5,1.15-.89,1.5S7.18,34.6,6.59,34c-.83-.88-2.15.45-1.32,1.32A2.47,2.47,0,0,0,7.64,36,3.31,3.31,0,0,0,9,35.19,6.75,6.75,0,0,0,11,33,2.47,2.47,0,0,0,8.5,29.7c-1.1.11-1.86,1-2.64,1.7a3.64,3.64,0,0,0-1,1.21,2.51,2.51,0,0,0,.43,2.66A.93.93,0,0,0,6.59,34Z" transform="translate(0 0)"/>
    <path class="cls-1" d="M32.18,31.15a1.53,1.53,0,0,0,.14,2.15L34,34.77a1.52,1.52,0,0,0,2.13-.14A1.54,1.54,0,0,0,36,32.48L34.3,31A1.5,1.5,0,0,0,32.18,31.15Z" transform="translate(0 0)"/>
    <path class="cls-1" d="M31.51,30.49a2.54,2.54,0,0,0,.35,3.66,8.17,8.17,0,0,0,2.28,1.79,2.46,2.46,0,0,0,3.21-2.73c-.18-1.08-1.1-1.71-1.86-2.39a4.74,4.74,0,0,0-1.25-.93,2.48,2.48,0,0,0-2.73.6c-.83.87.5,2.2,1.32,1.32.6-.63,1.22.23,1.7.65s1.3.91.89,1.5-1.24-.25-1.62-.6-1.45-1-1-1.55a1,1,0,0,0,0-1.32A.94.94,0,0,0,31.51,30.49Z" transform="translate(0 0)"/>
    <path class="cls-1" d="M5.93,7.8a1.52,1.52,0,0,0,.14,2.14l1.64,1.47a1.52,1.52,0,0,0,2.13-.14A1.55,1.55,0,0,0,9.7,9.12L8.05,7.65A1.5,1.5,0,0,0,5.93,7.8Z" transform="translate(0 0)"/>
    <path class="cls-1" d="M5.26,7.14a2.54,2.54,0,0,0,.35,3.66,8.17,8.17,0,0,0,2.28,1.79A2.46,2.46,0,0,0,11.1,9.86C10.92,8.78,10,8.15,9.24,7.47A4.63,4.63,0,0,0,8,6.54a2.46,2.46,0,0,0-2.72.6c-.83.87.5,2.2,1.32,1.32.6-.63,1.22.23,1.69.65s1.31.91.89,1.5-1.23-.25-1.62-.6-1.44-1-1-1.55a1,1,0,0,0,0-1.32A.94.94,0,0,0,5.26,7.14Z" transform="translate(0 0)"/>
</symbol>
<symbol viewBox="0 0 32 37" id="snow">
    <path d="M31.2464 25.8004L28.0998 23.9646L30.5862 23.2958C30.7698 23.2524 30.9429 23.1721 31.0952 23.0596C31.2475 22.947 31.3759 22.8046 31.4727 22.6407C31.5696 22.4768 31.6328 22.2949 31.6588 22.1057C31.6847 21.9165 31.6728 21.724 31.6238 21.5396C31.5747 21.3552 31.4896 21.1827 31.3733 21.0323C31.2571 20.8819 31.1121 20.7568 30.9471 20.6644C30.7822 20.572 30.6005 20.5142 30.413 20.4944C30.2255 20.4746 30.0359 20.4933 29.8557 20.5492L24.6582 21.9723L18.7582 18.5L24.6582 15.0419L29.8557 16.465C30.2104 16.5487 30.5834 16.4896 30.8959 16.3001C31.2084 16.1106 31.4361 15.8055 31.5308 15.4493C31.6256 15.093 31.58 14.7134 31.4038 14.3905C31.2275 14.0675 30.9344 13.8266 30.5862 13.7185L28.0998 13.0496L31.2464 11.2138C31.4143 11.1249 31.5626 11.0024 31.6826 10.8539C31.8025 10.7053 31.8916 10.5337 31.9444 10.3494C31.9972 10.1651 32.0126 9.97181 31.9897 9.78128C31.9669 9.59075 31.9063 9.40687 31.8114 9.24071C31.7166 9.07454 31.5896 8.92952 31.438 8.81437C31.2865 8.69922 31.1135 8.61633 30.9295 8.57066C30.7454 8.525 30.5542 8.51752 30.3673 8.54867C30.1803 8.57982 30.0015 8.64896 29.8416 8.75192L26.695 10.5877L27.3553 8.06885C27.4105 7.88625 27.4289 7.69425 27.4094 7.50429C27.3899 7.31433 27.3328 7.1303 27.2416 6.96316C27.1503 6.79602 27.0268 6.64919 26.8784 6.53142C26.73 6.41365 26.5597 6.32735 26.3777 6.27767C26.1956 6.22798 26.0056 6.21592 25.8188 6.24221C25.6321 6.2685 25.4525 6.3326 25.2908 6.43069C25.129 6.52878 24.9884 6.65885 24.8773 6.81316C24.7662 6.96746 24.6869 7.14284 24.6441 7.32885L23.2394 12.5942L17.3535 16.0381V9.12192L21.1603 5.26538C21.3905 4.99315 21.5107 4.64296 21.4971 4.28481C21.4834 3.92665 21.3369 3.58691 21.0867 3.33347C20.8365 3.08003 20.5011 2.93155 20.1476 2.91772C19.7941 2.90388 19.4484 3.02571 19.1797 3.25885L17.3535 5.10885V1.42308C17.3535 1.04565 17.2055 0.683688 16.9421 0.416809C16.6786 0.149931 16.3213 0 15.9488 0C15.5762 0 15.2189 0.149931 14.9555 0.416809C14.692 0.683688 14.544 1.04565 14.544 1.42308V5.10885L12.7319 3.25885C12.4632 3.02571 12.1175 2.90388 11.764 2.91772C11.4104 2.93155 11.0751 3.08003 10.8249 3.33347C10.5747 3.58691 10.4281 3.92665 10.4145 4.28481C10.4008 4.64296 10.5211 4.99315 10.7512 5.26538L14.544 9.12192V16.0238L8.64411 12.5658L7.23937 7.30038C7.19659 7.11438 7.11729 6.939 7.0062 6.78469C6.89511 6.63039 6.75449 6.50032 6.59272 6.40223C6.43096 6.30414 6.25136 6.24004 6.06463 6.21375C5.8779 6.18746 5.68786 6.19952 5.50582 6.24921C5.32379 6.29889 5.15349 6.38519 5.00507 6.50296C4.85665 6.62073 4.73315 6.76755 4.64193 6.93469C4.5507 7.10183 4.49362 7.28587 4.47409 7.47583C4.45455 7.66579 4.47296 7.85778 4.52822 8.04038L5.18845 10.5592L2.05588 8.72346C1.73484 8.55333 1.36132 8.51544 1.01335 8.6177C0.665387 8.71997 0.369882 8.95448 0.188564 9.27226C0.00724585 9.59003 -0.0458606 9.96649 0.0403379 10.323C0.126536 10.6795 0.345373 10.9885 0.651135 11.1854L3.79775 13.0212L1.31136 13.69C1.12775 13.7333 0.954634 13.8137 0.802318 13.9262C0.650002 14.0388 0.521606 14.1812 0.424782 14.3451C0.327957 14.509 0.264684 14.6909 0.238733 14.8801C0.212782 15.0692 0.224684 15.2618 0.27373 15.4462C0.322775 15.6306 0.407962 15.8031 0.524212 15.9535C0.640463 16.1038 0.785399 16.2289 0.950386 16.3213C1.11537 16.4138 1.29703 16.4716 1.48454 16.4914C1.67206 16.5112 1.86158 16.4925 2.04183 16.4365L7.23937 15.0135L13.1393 18.5L7.23937 21.9581L2.04183 20.535C1.86158 20.479 1.67206 20.4604 1.48454 20.4802C1.29703 20.5 1.11537 20.5578 0.950386 20.6502C0.785399 20.7426 0.640463 20.8677 0.524212 21.0181C0.407962 21.1684 0.322775 21.3409 0.27373 21.5254C0.224684 21.7098 0.212782 21.9023 0.238733 22.0915C0.264684 22.2806 0.327957 22.4626 0.424782 22.6265C0.521606 22.7903 0.650002 22.9328 0.802318 23.0453C0.954634 23.1579 1.12775 23.2382 1.31136 23.2815L3.79775 23.9504L0.651135 25.8004C0.345373 25.9973 0.126536 26.3063 0.0403379 26.6628C-0.0458606 27.0193 0.00724585 27.3957 0.188564 27.7135C0.369882 28.0313 0.665387 28.2658 1.01335 28.3681C1.36132 28.4703 1.73484 28.4324 2.05588 28.2623L5.2025 26.4265L4.54227 28.9454C4.48701 29.128 4.4686 29.32 4.48814 29.5099C4.50767 29.6999 4.56475 29.8839 4.65597 30.0511C4.7472 30.2182 4.8707 30.365 5.01911 30.4828C5.16753 30.6006 5.33783 30.6869 5.51987 30.7366C5.7019 30.7862 5.89195 30.7983 6.07868 30.772C6.26541 30.7457 6.44501 30.6816 6.60677 30.5835C6.76853 30.4854 6.90915 30.3554 7.02025 30.2011C7.13134 30.0468 7.21064 29.8714 7.25342 29.6854L8.65816 24.42L14.544 20.9619V27.8638L10.7372 31.7204C10.507 31.9926 10.3868 32.3428 10.4004 32.701C10.4141 33.0591 10.5607 33.3989 10.8108 33.6523C11.061 33.9057 11.3964 34.0542 11.7499 34.068C12.1035 34.0819 12.4491 33.9601 12.7179 33.7269L14.544 31.8912V35.5769C14.544 35.9543 14.692 36.3163 14.9555 36.5832C15.2189 36.8501 15.5762 37 15.9488 37C16.3213 37 16.6786 36.8501 16.9421 36.5832C17.2055 36.3163 17.3535 35.9543 17.3535 35.5769V31.8912L19.1656 33.7269C19.4343 33.9601 19.78 34.0819 20.1336 34.068C20.4871 34.0542 20.8225 33.9057 21.0726 33.6523C21.3228 33.3989 21.4694 33.0591 21.483 32.701C21.4967 32.3428 21.3764 31.9926 21.1463 31.7204L17.3535 27.8781V20.9619L23.2534 24.42L24.6582 29.6854C24.7009 29.8714 24.7802 30.0468 24.8913 30.2011C25.0024 30.3554 25.143 30.4854 25.3048 30.5835C25.4666 30.6816 25.6462 30.7457 25.8329 30.772C26.0196 30.7983 26.2097 30.7862 26.3917 30.7366C26.5737 30.6869 26.744 30.6006 26.8925 30.4828C27.0409 30.365 27.1644 30.2182 27.2556 30.0511C27.3468 29.8839 27.4039 29.6999 27.4234 29.5099C27.443 29.32 27.4246 29.128 27.3693 28.9454L26.7091 26.4265L29.8557 28.2623C30.1767 28.4324 30.5503 28.4703 30.8982 28.3681C31.2462 28.2658 31.5417 28.0313 31.723 27.7135C31.9043 27.3957 31.9574 27.0193 31.8712 26.6628C31.785 26.3063 31.5662 25.9973 31.2604 25.8004H31.2464Z"/>
</symbol>

<symbol viewBox="0 0 62 61" id="shin" xmlns="http://www.w3.org/2000/svg">
    <path d="M61.0201 30.4899C61.0201 30.1139 61.0054 29.7406 60.9919 29.3672L59.7551 28.5118L60.8738 27.5086C60.6831 25.5466 60.303 23.6396 59.7591 21.8052L58.3799 21.2949L59.1951 20.0741C58.5223 18.2236 57.6762 16.459 56.6758 14.7951L55.2509 14.6487L55.7209 13.3071C54.609 11.6781 53.3426 10.1647 51.9446 8.78412L50.5694 8.98959L50.6876 7.61442C49.2077 6.30775 47.5989 5.14343 45.8853 4.1416L44.6283 4.67206L44.4027 3.33047C42.6488 2.43205 40.7983 1.69881 38.8685 1.14955L37.7941 1.9674L37.2489 0.735927C35.3393 0.304846 33.3611 0.0537173 31.3346 0L30.5087 1.04614L29.6828 0C27.655 0.0537173 25.6782 0.304846 23.7672 0.735927L23.222 1.9674L22.1476 1.14955C20.2178 1.69881 18.3686 2.43071 16.6161 3.32913L16.3918 4.67072L15.1348 4.13892C13.4199 5.14209 11.8111 6.30641 10.3312 7.61308L10.4494 8.98824L9.07419 8.78277C7.67486 10.1633 6.40981 11.6781 5.29652 13.3071L5.76655 14.6474L4.34304 14.7937C3.34256 16.4563 2.49651 18.2222 1.82504 20.0728L2.63886 21.2935L1.26101 21.8025C0.717126 23.6383 0.337076 25.5453 0.14638 27.5073L1.26504 28.5104L0.0282018 29.3659C0.0147724 29.7392 0 30.1126 0 30.4886C0 32.0652 0.119521 33.6122 0.350505 35.1244L1.72432 35.8415L0.705039 37.0179C1.11598 38.9047 1.69747 40.7284 2.44011 42.4675L3.99388 42.8288L3.28213 44.2563C4.14429 45.9592 5.15954 47.5693 6.31312 49.0694L7.93001 49.0331L7.58757 50.6178C8.83515 52.0373 10.2117 53.3372 11.6996 54.5056L13.2843 54.0597L13.3514 55.7196C14.8945 56.7711 16.5409 57.6803 18.2692 58.439L19.721 57.597L20.2044 59.2112C21.9462 59.837 23.7592 60.3057 25.6312 60.6079L26.8358 59.4234L27.7047 60.8657C28.6286 60.9503 29.562 61 30.5074 61C31.4528 61 32.3861 60.9503 33.3114 60.8657L34.1803 59.4234L35.3836 60.6065C37.2556 60.3057 39.0672 59.837 40.809 59.2126L41.2925 57.597L42.7442 58.439C44.4725 57.6816 46.1203 56.7711 47.6633 55.7196L47.7291 54.0597L49.3138 54.5056C50.8018 53.3386 52.1796 52.0359 53.4272 50.6165L53.0874 49.0304L54.703 49.0667C55.8552 47.5667 56.8705 45.9578 57.734 44.255L57.0209 42.8274L58.5747 42.4662C59.3173 40.7271 59.8988 38.9047 60.3097 37.0166L59.2905 35.8402L60.667 35.123C60.9006 33.6136 61.0201 32.0665 61.0201 30.4899ZM30.5087 48.7887C20.1776 48.7887 11.8003 40.4142 11.8003 30.0817C11.8003 19.7492 20.1762 11.3746 30.5087 11.3746C40.8412 11.3746 49.2158 19.7492 49.2158 30.0817C49.2158 40.4142 40.8399 48.7887 30.5087 48.7887Z" />
    <path d="M13.4348 30.1318C13.4348 39.4665 21.0291 47.0594 30.3625 47.0594C39.6972 47.0594 47.2915 39.4665 47.2915 30.1318C47.2915 20.797 39.6985 13.2041 30.3625 13.2041C21.0291 13.2041 13.4348 20.797 13.4348 30.1318ZM14.7777 30.1318C14.7777 21.5383 21.769 14.547 30.3625 14.547C38.9559 14.547 45.9485 21.5383 45.9485 30.1318C45.9485 38.7252 38.9559 45.7165 30.3625 45.7165C21.769 45.7165 14.7777 38.7265 14.7777 30.1318Z" />
</symbol>
<symbol viewBox="0 0 60 56" id="disk"  xmlns="http://www.w3.org/2000/svg">
    <path d="M25.8488 33.5824C25.5184 32.284 24.5105 29.0809 24.0735 28.2839C23.6294 27.4741 23.1722 26.8766 21.3224 26.5649C19.3811 26.2382 12.4417 25.4337 12.3717 25.4255C12.3508 25.4222 10.5756 25.2126 10.3512 26.3019C10.2514 26.788 10.1515 27.5685 10.1551 28.6484C10.1803 27.9901 10.3991 27.4855 10.8215 27.1592C11.6018 26.5571 12.7596 26.7981 13.0978 26.8861C17.1558 27.7381 20.0057 29.5868 20.7822 30.1333C21.552 30.6749 21.9896 32.4764 22.1426 33.2256C22.3827 34.4049 21.4807 36.3476 20.4531 38.4034C19.6172 40.0744 18.483 41.5107 17.3409 42.3437C16.9955 42.5959 16.622 42.6996 16.2525 42.6996C15.4008 42.6996 14.5682 42.1479 14.1385 41.5931C10.9784 36.7031 10.3189 31.4235 10.1815 29.5127C10.2383 30.6121 10.396 31.9491 10.7456 33.5749C11.4632 36.9134 12.4659 39.8494 15.0234 43.3236C15.0673 43.3792 15.9438 44.464 17.0498 44.4994C17.9917 44.5308 18.1847 44.3554 19.1881 43.3847C19.387 43.1925 19.6145 42.9724 19.8827 42.7215C21.4447 41.2583 24.2488 38.2422 25.1731 36.9389C25.9626 35.8276 26.164 34.8239 25.8488 33.5824Z" />
    <path d="M40.6306 42.9068C40.1094 41.7114 39.1393 39.4862 38.0705 38.9128C37.6643 38.6951 36.6446 38.6104 35.513 38.6104C34.0158 38.6104 32.321 38.7585 31.5838 38.9427C30.4751 39.22 29.5882 41.2405 29.0021 42.5775L28.9452 42.707C28.329 44.1087 26.6552 47.3393 26.1908 48.169L25.9926 48.5193C25.6865 49.0576 25.1743 49.9583 25.1743 50.2163C25.1743 50.9467 25.4039 51.3009 26.1567 51.7316C26.2974 51.8117 26.856 52.0511 29.0099 52.5397C30.7976 52.9452 32.5879 53.1049 34.3323 53.0133C37.6434 52.8403 40.0335 51.8349 41.462 51.2344C43.2948 50.4636 43.0292 49.4167 42.8709 48.7911C42.6852 48.0594 41.3665 44.5966 40.6306 42.9068ZM41.1905 49.0422C40.9891 49.7035 39.0582 51.2878 34.6312 51.6864C33.7495 51.7659 32.9195 51.799 32.1516 51.7993C29.1473 51.7993 27.0751 51.2907 26.4269 51.0428C26.0272 50.8901 25.7479 50.548 25.6596 50.1035C25.5693 49.6456 25.6996 49.1574 25.9854 48.8882L26.0397 48.8372C26.387 48.5101 26.82 48.1033 27.9045 46.418C29.4436 44.0187 31.7493 41.5512 31.8232 41.4727C32.1914 41.0721 32.8462 40.9089 34.0818 40.9089C35.4306 40.9089 35.8747 41.2385 36.5438 41.8216C38.2668 43.2639 40.2722 46.1731 40.6758 46.8153C41.1716 47.6039 41.3685 48.4572 41.1905 49.0422Z" />
    <path d="M39.5312 46.3184C38.8711 46.9137 37.1379 48.3945 35.0997 49.4698C34.2483 49.9192 33.5135 50.2584 32.895 50.5216C35.9212 50.2768 38.3658 49.5291 39.3056 49.0465C40.3438 48.5141 40.404 48.0651 40.4001 47.75C40.3266 47.565 40.235 47.3726 40.1089 47.1719C40.0083 47.0119 39.8047 46.7062 39.5312 46.3184Z" />
    <path d="M34.3438 51.0367C34.4202 51.0305 34.4938 51.0263 34.5712 51.0194C37.0731 50.7941 38.6853 50.1795 39.6011 49.6475C38.7607 50.0761 36.8121 50.7002 34.3438 51.0367Z" />
    <path d="M28.7694 24.5046C28.7392 24.5017 28.7098 24.5 28.6804 24.5C28.0995 24.5 27.5841 25.0664 27.5096 25.8098C27.4323 26.5908 27.87 27.2767 28.4861 27.3381C28.7726 27.3682 29.0604 27.2551 29.2952 27.0232C29.547 26.7746 29.7067 26.4233 29.7459 26.0336V26.0332C29.7845 25.6434 29.6975 25.2669 29.4999 24.9736C29.3155 24.6998 29.0558 24.5334 28.7694 24.5046Z" />
    <path d="M7.42598 27.9996C7.42598 15.6384 14.6748 5.08004 24.8027 1.06259C24.2648 1.02067 23.725 0.996094 23.1865 0.996094C10.4015 0.996093 0 12.7797 0 27.2634C0 41.2028 9.6352 52.6356 21.756 53.4761C13.2542 48.7054 7.42598 39.08 7.42598 27.9996Z" />
    <path d="M38.8047 26.6584C39.0402 26.9134 39.3659 27.0586 39.7211 27.0669C40.075 27.0675 40.4269 26.9416 40.6977 26.693C41.2517 26.1818 41.304 25.3341 40.8148 24.8033C40.5636 24.5319 40.2189 24.3955 39.8677 24.3955C39.5327 24.3955 39.1919 24.5194 38.9211 24.769C38.6516 25.0182 38.4914 25.3531 38.4705 25.7122C38.4502 26.0667 38.5693 26.4029 38.8047 26.658V26.6584Z" />
    <path d="M33.6946 22.6861C33.9844 22.8041 34.3121 22.7852 34.6175 22.6324C34.938 22.4728 35.1944 22.1886 35.3396 21.8322V21.8318C35.4849 21.4753 35.5006 21.093 35.3828 20.7548C35.271 20.432 35.0493 20.1894 34.7601 20.0713C34.6346 20.0203 34.5024 19.9951 34.3677 19.9951C34.191 19.9951 34.0106 20.0386 33.8372 20.1249C33.5167 20.2845 33.2603 20.569 33.115 20.9255C32.9699 21.2823 32.9542 21.6646 33.0719 22.0028C33.1837 22.3253 33.4055 22.568 33.6946 22.6861Z" />
    <path d="M31.0437 27.7962C31.0437 29.595 32.3813 31.0585 34.0251 31.0585C35.6689 31.0585 37.0065 29.595 37.0065 27.7962C37.0065 25.9974 35.6689 24.5342 34.0251 24.5342C32.3813 24.5342 31.0437 25.9974 31.0437 27.7962Z" />
    <path d="M31.4913 31.9548C31.2768 31.7745 31.0282 31.6797 30.777 31.6797C30.7253 31.6797 30.673 31.6839 30.6207 31.6921C29.9783 31.7951 29.5558 32.5055 29.6787 33.2754C29.7396 33.6573 29.9234 33.9939 30.1968 34.2231C30.4565 34.441 30.7639 34.5325 31.0674 34.4858C31.3703 34.4373 31.6345 34.2523 31.8131 33.9648C32.0008 33.6616 32.0708 33.2845 32.0093 32.9025C31.9485 32.5205 31.7647 32.184 31.4913 31.9548Z" />
    <path d="M36.8537 33.8213C37.4103 34.3778 38.277 34.4148 38.7853 33.9072C39.2941 33.398 39.2555 32.5317 38.6995 31.9757C38.4052 31.6813 38.0239 31.5322 37.6543 31.5322C37.326 31.5322 37.0074 31.6503 36.768 31.8897C36.2591 32.3986 36.2977 33.2649 36.8537 33.8213Z" />
    <path d="M15.105 16.2975C16.0868 16.7315 17.3988 17.4111 18.9177 18.198C20.2749 18.9011 21.8127 19.6981 23.3322 20.4275C24.6836 21.092 25.6968 21.2052 26.3489 20.7637C27.2372 20.1616 30.4115 17.5799 30.9086 17.083C31.309 16.6824 31.7132 15.8635 31.7132 14.9379C31.7132 14.066 31.0787 9.74241 30.2473 6.87322C30.0132 5.73675 29.6436 4.44489 29.4212 4.20545C29.1543 3.91932 28.5127 3.35254 27.6172 3.35254C27.4072 3.35254 27.1836 3.3836 26.9474 3.45686L26.9219 3.46375C26.8833 3.47256 22.9738 4.38893 19.5201 7.45079C16.0436 10.5326 13.9924 14.2962 13.9721 14.3339C13.9465 14.4212 13.5822 15.6251 15.105 16.2975ZM14.9009 12.8422C19.1571 7.68725 22.0986 6.08177 25.2056 5.25727C26.086 5.0228 26.8146 5.1297 27.368 5.57322C28.1719 6.21749 28.5389 7.52696 28.4604 9.46541C28.2452 14.8241 27.4818 15.7994 27.1149 16.2681C26.8879 16.563 26.6492 16.7089 26.4183 16.8502C26.2233 16.9692 26.0389 17.0818 25.8884 17.2577C25.4959 17.7156 24.6934 18.0066 24.1492 18.0066C24.0838 18.0066 24.0216 18.0024 23.964 17.9936C21.5537 17.8339 18.1851 16.6824 16.3753 16.0637C16.0678 15.9587 15.8048 15.8687 15.5975 15.8014C14.9081 15.5766 14.4934 15.0665 14.4306 14.3643C14.3815 13.8178 14.5529 13.2631 14.9009 12.8422Z" />
    <path d="M44.741 28.5313C43.9357 30.7922 43.143 33.6467 43.3072 34.5725C43.5132 35.7365 43.8743 36.1636 44.6709 37.0185L44.8901 37.2537C45.883 38.3189 48.209 40.8133 49.0829 41.9639C50.0464 43.2331 50.274 43.3862 50.8077 43.1389C51.4677 42.8345 52.5509 41.729 53.3449 40.2056C54.0854 38.7843 55.6939 34.2131 55.9725 32.2181C56.3375 29.6007 56.3427 27.2928 56.3427 27.2626C56.342 26.5732 56.1727 25.3363 55.7226 24.9507C55.6304 24.8722 55.5349 24.835 55.4211 24.835C55.3916 24.835 55.3602 24.8372 55.3282 24.8424C53.9768 25.0524 48.1096 26.1788 47.0166 26.5203C45.9334 26.8587 45.1746 27.3134 44.741 28.5313ZM53.6916 25.9064C53.8356 25.8573 53.9866 25.8792 54.1135 25.9669C54.4831 26.2217 54.5989 27.1423 54.6302 27.8713C54.6375 27.9779 54.7114 29.3145 54.2522 31.842C53.2841 37.2207 51.1838 40.4555 50.7724 41.0494C50.4513 41.5139 50.0961 41.7696 49.7468 41.7889C49.7331 41.7895 49.7193 41.7899 49.7062 41.7899C49.5081 41.7899 49.3301 41.7094 49.2006 41.5606C46.6555 37.6415 44.9372 33.9155 44.8404 33.1803C44.7482 32.4784 45.2845 30.7928 45.9039 29.8404C46.6307 28.7219 53.6249 25.9286 53.6916 25.9064Z" />
    <path d="M33.8535 0C19.6504 0 8.0957 12.5606 8.0957 28C8.0957 43.4394 19.6504 56 33.8535 56C48.0566 56 59.6119 43.4394 59.6119 28C59.6119 12.5606 48.0566 0 33.8535 0ZM33.5382 19.5248C34.0183 19.2861 34.5422 19.259 35.0126 19.4506C35.4828 19.6423 35.8393 20.0272 36.0153 20.5345C36.1867 21.0263 36.167 21.5767 35.9597 22.084C35.753 22.5916 35.3827 22.9991 34.9164 23.2313C34.8683 23.2552 34.8181 23.2656 34.7693 23.2854C36.0871 23.5352 37.1979 24.4317 37.8037 25.6608C37.8378 25.1327 38.072 24.6419 38.4669 24.2775C39.293 23.5155 40.5665 23.5492 41.3063 24.3498C42.046 25.1521 41.9768 26.4243 41.1513 27.186C40.7647 27.5428 40.2695 27.7377 39.7522 27.7377C39.7371 27.7377 39.7214 27.7374 39.7057 27.737C39.1667 27.7249 38.6722 27.5032 38.3125 27.113C38.2811 27.0791 38.2589 27.0396 38.2303 27.004C38.2725 27.2621 38.2988 27.526 38.2988 27.7969C38.2988 29.0156 37.8505 30.1218 37.1253 30.944C37.8154 30.7529 38.6064 30.9368 39.1733 31.5027C39.9902 32.3197 40.0288 33.6109 39.259 34.3814C38.8894 34.7513 38.3988 34.9345 37.8991 34.9345C37.3575 34.9345 36.8054 34.7202 36.3803 34.2954C35.7087 33.6233 35.5723 32.6351 35.9693 31.8756C35.3852 32.1975 34.7254 32.3828 34.0249 32.3828C33.4545 32.3828 32.9109 32.2601 32.413 32.0416C32.5394 32.2708 32.6275 32.5257 32.6709 32.7955C32.7572 33.3365 32.6545 33.8767 32.3818 34.3166C32.0998 34.7719 31.6701 35.0665 31.173 35.146C31.084 35.1601 30.9957 35.1673 30.9074 35.1673C30.5006 35.1673 30.1029 35.0182 29.766 34.7352C29.369 34.4023 29.1034 33.9213 29.0164 33.38C28.8352 32.2454 29.507 31.1914 30.5143 31.0298C30.677 31.004 30.839 31.0109 30.9992 31.0323C30.2284 30.2024 29.751 29.0584 29.751 27.7969C29.751 27.6968 29.7591 27.5988 29.765 27.5003C29.4269 27.8343 29.0097 28.0128 28.5768 28.0128C28.5245 28.0128 28.4722 28.0101 28.4192 28.0049C27.4361 27.9065 26.729 26.8923 26.8435 25.7437C26.9587 24.5948 27.8502 23.7379 28.8359 23.8383C29.3245 23.887 29.7575 24.1575 30.0552 24.5997C30.2182 24.8418 30.3228 25.1222 30.3778 25.4183C31.0212 24.2867 32.1061 23.4786 33.3757 23.2697C32.9401 23.0697 32.6064 22.7038 32.4393 22.222C32.268 21.7301 32.2876 21.1797 32.4949 20.6721C32.7016 20.1649 33.0719 19.7574 33.5382 19.5248ZM13.3612 14.0618C13.4665 13.8584 15.506 10.1134 19.0748 6.94976C22.5971 3.82715 26.4628 2.88264 26.7604 2.81329C28.3623 2.325 29.4965 3.30449 29.9112 3.74926C30.3717 4.24477 30.8126 6.30482 30.8969 6.7127C31.7067 9.50506 32.3824 13.8901 32.3824 14.938C32.3824 15.9204 31.99 16.9483 31.3817 17.5566C30.8518 18.0865 27.6513 20.6895 26.7238 21.3184C26.3464 21.5744 25.9075 21.7027 25.4025 21.7027C24.7347 21.7027 23.9511 21.4787 23.0386 21.0299C21.5132 20.2977 19.9702 19.498 18.6091 18.7929C17.1 18.011 15.7965 17.3356 14.8336 16.9104C13.1303 16.1579 13.1258 14.7182 13.3612 14.0618ZM20.3405 43.2111C20.0755 43.4593 19.8505 43.6771 19.6537 43.8674C18.6685 44.8195 18.3036 45.1727 17.2112 45.1727C17.1523 45.1727 17.0915 45.1718 17.0288 45.1694C15.5793 45.1237 14.5347 43.7886 14.4909 43.7317L14.4869 43.7258C11.8562 40.1535 10.8266 37.141 10.0901 33.7165C9.22402 29.6885 9.47128 27.2582 9.69562 26.1682C10.0443 24.4724 12.3572 24.7498 12.4527 24.7615C12.5187 24.7694 19.4758 25.5756 21.4335 25.9052C23.5724 26.2657 24.1604 27.0506 24.6608 27.963C25.1743 28.8994 26.2012 32.2532 26.4975 33.4185C26.8618 34.851 26.6218 36.0566 25.7191 37.3275C24.7739 38.6599 21.924 41.7276 20.3405 43.2111ZM41.721 51.8521C40.2532 52.4695 37.7951 53.503 34.3676 53.6826C34.038 53.6996 33.7063 53.7084 33.374 53.7084C31.886 53.7084 30.3724 53.5357 28.8621 53.1933C27.2137 52.8191 26.1914 52.5232 25.8244 52.3132C25.0323 51.8599 24.5044 51.3301 24.5044 50.2164C24.5044 49.8116 24.8629 49.1506 25.4104 48.1884L25.6059 47.8418C26.0658 47.0202 27.7233 43.8227 28.3316 42.4376L28.3885 42.3084C29.0661 40.7644 29.9936 38.6497 31.4215 38.2932C32.7409 37.9623 37.2044 37.6882 38.3871 38.323C39.5625 38.9529 40.4782 40.8815 41.2441 42.6394C42.0068 44.3885 43.3249 47.8565 43.5191 48.6244C43.6748 49.237 44.0856 50.8578 41.721 51.8521ZM56.1576 24.4437C56.9877 25.1547 57.0118 27.0499 57.0118 27.2638C57.0118 27.2874 57.0073 29.6421 56.6351 32.3118C56.3434 34.4046 54.7166 39.0223 53.9382 40.5162C53.1638 42.002 51.9923 43.3311 51.0883 43.7484C50.8463 43.86 50.6298 43.9113 50.4303 43.9113C49.7186 43.9113 49.2235 43.2585 48.5484 42.3699C47.6955 41.2465 45.3859 38.7694 44.3995 37.7117L44.1797 37.4762C43.3366 36.5707 42.8853 36.0356 42.6472 34.6908C42.3908 33.2419 43.8206 29.1195 44.1097 28.3077C44.6657 26.7454 45.7391 26.2185 46.8158 25.8824C47.9604 25.5246 53.8258 24.3992 55.2242 24.1817C55.5729 24.1284 55.8953 24.2183 56.1576 24.4437ZM52.7327 16.6641C52.3049 17.072 48.4229 19.5919 46.7752 20.5662C45.5017 21.3194 44.7128 21.6422 43.8854 21.6422C43.4818 21.6422 43.0697 21.5656 42.587 21.4247C41.0616 20.9789 38.4826 18.4819 37.4445 17.4291C36.3888 16.3577 36.619 14.8713 36.8852 13.1507C36.9513 12.7265 37.0193 12.2863 37.0704 11.8333C37.2679 10.0803 37.489 7.16496 37.6211 5.42343L37.7081 4.29385C37.7362 3.9324 37.901 3.62335 38.183 3.40033C38.9895 2.76321 40.5345 2.98205 40.7091 3.00855L40.7215 3.0108C40.8451 3.03498 43.7906 3.63904 47.6111 6.77026C50.7705 9.36014 52.6431 11.6619 53.3371 13.8074C53.9023 15.5535 53.1121 16.3034 52.7327 16.6641Z" />
    <path d="M47.1861 7.28768C43.5735 4.32655 40.7445 3.6993 40.5987 3.66857C40.4476 3.64598 40.1932 3.62207 39.91 3.62207C39.4448 3.62207 38.9 3.68619 38.5978 3.92563C38.4605 4.03452 38.3898 4.16792 38.3754 4.34616L38.289 5.47322C38.157 7.21965 37.9352 10.1425 37.7364 11.9079C37.684 12.3703 37.6147 12.8197 37.5473 13.2524C37.2987 14.8582 37.1026 16.1265 37.9221 16.9582C38.7031 17.7506 41.362 20.3683 42.7755 20.7811C44.051 21.1542 44.7018 21.0136 46.4339 19.9893C48.2373 18.9228 51.9355 16.4981 52.2429 16.2054C52.5948 15.8711 53.1351 15.3576 52.7002 14.0128C52.0467 11.9932 50.2434 9.7935 47.1861 7.28768ZM48.1862 16.8542C46.602 17.4534 43.8358 17.8756 42.6323 17.8759C42.4707 17.8759 42.3379 17.8681 42.2392 17.8524C41.3208 17.7055 39.6849 16.1612 39.418 15.5741C39.1296 14.94 38.7188 10.6716 38.7188 8.83461C38.7188 7.4479 38.5278 6.6434 38.4251 6.21102C38.3774 6.00794 38.3453 5.87348 38.3453 5.75187C38.3453 5.3538 38.5089 5.12813 38.6455 5.00878C38.915 4.77364 39.261 4.78444 39.367 4.79424C40.3004 4.79914 44.1649 6.91742 46.1317 8.5288C48.2804 10.2897 50.6751 13.514 50.8281 14.5459C50.9988 15.6961 49.8411 16.2282 48.1862 16.8542Z" />
    <path d="M45.707 9.04709C43.5079 7.24536 39.911 5.45998 39.3995 5.45898L39.3354 5.47534L39.3034 5.4613C39.2961 5.46064 39.2863 5.45998 39.2752 5.45998C39.2223 5.45998 39.1346 5.46978 39.0836 5.51562C39.0267 5.56662 39.0149 5.67226 39.0149 5.75208C39.0149 5.79553 39.0463 5.92833 39.077 6.05656C39.1617 6.41443 39.3025 7.01777 39.3609 7.95885C39.7913 8.3452 41.4508 9.87981 42.9336 11.8561C44.3562 13.7528 45.4347 16.0619 45.7694 16.8128C46.5632 16.6542 47.3472 16.4555 47.9492 16.2278C49.7278 15.5551 50.2451 15.1851 50.1653 14.6445C50.0574 13.9159 47.9257 10.8655 45.707 9.04709Z" />
    <path d="M49.7344 41.1608C49.7371 41.1291 49.9431 41.0719 50.2211 40.67C50.6188 40.096 52.6491 36.9677 53.5923 31.7248C54.0443 29.2383 53.9626 27.9281 53.9612 27.915L53.9606 27.9062C53.9377 27.377 53.8513 26.8246 53.7624 26.5947C52.9207 26.9152 49.6154 28.3281 47.7444 29.3422C47.5082 32.9034 46.746 34.9449 46.5132 35.4943C47.2391 36.9816 48.3331 38.9998 49.7344 41.1608Z" />
</symbol>


<symbol id="x" viewBox="0 0 9 10" xmlns="http://www.w3.org/2000/svg">
<line x1="0.353553" y1="1.14645" x2="8.35354" y2="9.14644" />
<line x1="8.35355" y1="1.35355" x2="0.353562" y2="9.35354" />
</symbol>

<symbol id="basket"  viewBox="0 0 47 41" xmlns="http://www.w3.org/2000/svg">
<path d="M1.99334 3.98668C3.03988 3.98668 3.88902 3.17723 3.97049 2.15105H7.74358C9.50714 2.15105 11.0205 3.34852 11.4237 5.06247C12.1376 8.09765 12.9977 12.2676 13.8448 16.4115C13.85 16.4454 13.8568 16.4783 13.8651 16.5107C13.9335 16.846 14.0019 17.1807 14.0704 17.515C14.4145 19.1986 14.7633 20.9032 15.1054 22.5524C15.1085 22.5691 15.1117 22.5858 15.1158 22.6025C15.6887 25.3593 16.2439 27.9579 16.7327 30.0353C17.2298 32.1477 18.8184 33.7489 20.8222 34.3129C20.206 35.008 19.8279 35.9198 19.8279 36.9199C19.8279 39.0913 21.5951 40.8585 23.7665 40.8585C25.938 40.8585 27.7046 39.0913 27.7046 36.9199C27.7046 36.0237 27.4002 35.1986 26.8941 34.5364H35.0602C34.5536 35.1991 34.2492 36.0237 34.2492 36.9199C34.2492 39.0913 36.0164 40.8585 38.1878 40.8585C40.3592 40.8585 42.1259 39.0913 42.1259 36.9199C42.1259 36.0237 41.8215 35.1986 41.3154 34.5364H41.8142C42.3907 34.5364 42.8586 34.0685 42.8586 33.492C42.8586 32.9154 42.3907 32.4475 41.8142 32.4475H22.4197C20.7047 32.4475 19.2352 31.3038 18.7991 29.6572H36.3574C39.6318 29.6572 42.4826 27.4373 43.2895 24.2668L46.9659 10.2712C47.0479 9.95782 46.98 9.62464 46.7826 9.36822C46.5852 9.11077 46.2797 8.96089 45.9559 8.96089H14.4307C14.0886 7.36078 13.7601 5.87244 13.4578 4.58411C12.8306 1.92179 10.4811 0.0621452 7.74358 0.0621452H2.46439C2.31242 0.0250671 2.15627 0 1.99334 0C0.892485 0 0 0.892485 0 1.99334C0 3.09419 0.892485 3.98668 1.99334 3.98668ZM38.1878 38.7691C37.1679 38.7691 36.3381 37.9392 36.3381 36.9193C36.3381 35.9 37.1679 35.0701 38.1878 35.0701C39.2072 35.0701 40.037 35.9 40.037 36.9193C40.037 37.9392 39.2072 38.7691 38.1878 38.7691ZM23.7665 38.7691C22.7466 38.7691 21.9168 37.9392 21.9168 36.9193C21.9168 35.9 22.7466 35.0701 23.7665 35.0701C24.7859 35.0701 25.6157 35.9 25.6157 36.9193C25.6157 37.9392 24.7859 38.7691 23.7665 38.7691ZM41.9035 21.322H37.9466L38.345 17.2956H42.961L41.9035 21.322ZM35.8472 21.322H30.5659V17.2956H36.2462L35.8472 21.322ZM35.2284 27.5678H30.5659V23.4109H35.6399L35.2284 27.5678ZM17.4189 23.4109H21.2985L21.7105 27.5678H18.3129C18.0278 26.2873 17.727 24.8804 17.4189 23.4109ZM23.3973 23.4109H28.477V27.5678H23.8094L23.3973 23.4109ZM30.5659 15.2067V11.0498H36.865L36.453 15.2067H30.5659ZM28.477 15.2067H22.5847L22.1727 11.0498H28.477V15.2067ZM28.477 17.2956V21.322H23.1905L22.7915 17.2956H28.477ZM21.0912 21.322H16.9839C16.7097 19.9945 16.4324 18.6393 16.1577 17.2956H20.6917L21.0912 21.322ZM37.3371 27.4686L37.7392 23.4109H41.3546L41.2674 23.7436C40.777 25.67 39.2265 27.0963 37.3371 27.4686ZM43.5098 15.2067H38.5523L38.9644 11.0498H44.6023L43.5098 15.2067ZM20.0733 11.0498L20.4854 15.2067H15.731C15.4428 13.8009 15.1545 12.4008 14.872 11.0498H20.0733Z" />
</symbol>

<symbol id="arrow" viewBox="0 0 292 292" xmlns="http://www.w3.org/2000/svg">
    <path fill="#febe0a" d="M287 69.4a17.6 17.6 0 0 0-13-5.4H18.4c-5 0-9.3 1.8-12.9 5.4A17.6 17.6 0 0 0 0 82.2c0 5 1.8 9.3 5.4 12.9l128 127.9c3.6 3.6 7.8 5.4 12.8 5.4s9.2-1.8 12.8-5.4L287 95c3.5-3.5 5.4-7.8 5.4-12.8 0-5-1.9-9.2-5.5-12.8z"/>
</symbol>

<symbol id="delete" viewBox="-40 0 427 427.00131" xmlns="http://www.w3.org/2000/svg">
    <path d="m232.398438 154.703125c-5.523438 0-10 4.476563-10 10v189c0 5.519531 4.476562 10 10 10 5.523437 0 10-4.480469 10-10v-189c0-5.523437-4.476563-10-10-10zm0 0"/>
	<path d="m114.398438 154.703125c-5.523438 0-10 4.476563-10 10v189c0 5.519531 4.476562 10 10 10 5.523437 0 10-4.480469 10-10v-189c0-5.523437-4.476563-10-10-10zm0 0"/>
	<path d="m28.398438 127.121094v246.378906c0 14.5625 5.339843 28.238281 14.667968 38.050781 9.285156 9.839844 22.207032 15.425781 35.730469 15.449219h189.203125c13.527344-.023438 26.449219-5.609375 35.730469-15.449219 9.328125-9.8125 14.667969-23.488281 14.667969-38.050781v-246.378906c18.542968-4.921875 30.558593-22.835938 28.078124-41.863282-2.484374-19.023437-18.691406-33.253906-37.878906-33.257812h-51.199218v-12.5c.058593-10.511719-4.097657-20.605469-11.539063-28.03125-7.441406-7.421875-17.550781-11.5546875-28.0625-11.46875h-88.796875c-10.511719-.0859375-20.621094 4.046875-28.0625 11.46875-7.441406 7.425781-11.597656 17.519531-11.539062 28.03125v12.5h-51.199219c-19.1875.003906-35.394531 14.234375-37.878907 33.257812-2.480468 19.027344 9.535157 36.941407 28.078126 41.863282zm239.601562 279.878906h-189.203125c-17.097656 0-30.398437-14.6875-30.398437-33.5v-245.5h250v245.5c0 18.8125-13.300782 33.5-30.398438 33.5zm-158.601562-367.5c-.066407-5.207031 1.980468-10.21875 5.675781-13.894531 3.691406-3.675781 8.714843-5.695313 13.925781-5.605469h88.796875c5.210937-.089844 10.234375 1.929688 13.925781 5.605469 3.695313 3.671875 5.742188 8.6875 5.675782 13.894531v12.5h-128zm-71.199219 32.5h270.398437c9.941406 0 18 8.058594 18 18s-8.058594 18-18 18h-270.398437c-9.941407 0-18-8.058594-18-18s8.058593-18 18-18zm0 0"/>
	<path d="m173.398438 154.703125c-5.523438 0-10 4.476563-10 10v189c0 5.519531 4.476562 10 10 10 5.523437 0 10-4.480469 10-10v-189c0-5.523437-4.476563-10-10-10zm0 0"/>
</symbol>

<symbol id="danger" x="0px" y="0px" style="enable-background:new 0 0 512 512;" xml:space="preserve" viewBox="0 0 512 512" xmlns="http://www.w3.org/2000/svg">
    <g>
        <g>
            <path d="M501.362,383.95L320.497,51.474c-29.059-48.921-99.896-48.986-128.994,0L10.647,383.95c-29.706,49.989,6.259,113.291,64.482,113.291h361.736C495.039,497.241,531.068,433.99,501.362,383.95z M256,437.241c-16.538,0-30-13.462-30-30c0-16.538,13.462-30,30-30c16.538,0,30,13.462,30,30C286,423.779,272.538,437.241,256,437.241zM286,317.241c0,16.538-13.462,30-30,30c-16.538,0-30-13.462-30-30v-150c0-16.538,13.462-30,30-30c16.538,0,30,13.462,30,30V317.241z"/>
        </g>
    </g><g></g><g></g><g></g><g></g><g></g><g></g><g></g><g></g><g></g><g></g><g></g><g></g><g></g><g></g><g></g>
</symbol>

<symbol id="success" xmlns="http://www.w3.org/2000/svg" x="0px" y="0px" viewBox="0 0 477.867 477.867" style="enable-background:new 0 0 477.867 477.867;" xml:space="preserve">
    <g>
	    <g>
		    <path d="M238.933,0C106.974,0,0,106.974,0,238.933s106.974,238.933,238.933,238.933s238.933-106.974,238.933-238.933C477.726,107.033,370.834,0.141,238.933,0z M370.466,165.666L199.799,336.333c-6.665,6.663-17.468,6.663-24.132,0l-68.267-68.267c-6.78-6.548-6.968-17.352-0.42-24.132c6.548-6.78,17.352-6.968,24.132-0.42c0.142,0.138,0.282,0.277,0.42,0.42l56.201,56.201l158.601-158.601c6.78-6.548,17.584-6.36,24.132,0.419C376.854,148.567,376.854,159.052,370.466,165.666z"/>
	    </g>
    </g><g></g><g></g><g></g><g></g><g></g><g></g><g></g><g></g><g></g><g></g><g></g><g></g><g></g><g></g><g></g>
</symbol>

<symbol id="filter" enable-background="new 0 0 512 512" viewBox="0 0 512 512" xmlns="http://www.w3.org/2000/svg">
    <g>
		<path d="m187.304 252.717c8.045 11.642 5.64 1.941 5.64 233.997 0 20.766 23.692 32.651 40.39 20.23 71.353-53.797 85.609-58.456 85.609-83.619 0-169.104-1.971-159.594 5.64-170.608l115.869-157.718h-369.016z"/>
		<path d="m484.221 12.86c-4.14-7.93-12.26-12.86-21.199-12.86h-414.156c-19.305 0-30.664 21.777-19.59 37.6.091.152-1.257-1.693 20.12 27.4h413.095c18.217-24.793 30.394-35.505 21.73-52.14z"/>
	</g>
</symbol>

<symbol id="arrow-left" xmlns="http://www.w3.org/2000/svg" xmlns:xlink="http://www.w3.org/1999/xlink" x="0px" y="0px" viewBox="0 0 512 512" style="enable-background:new 0 0 512 512;" xml:space="preserve">
    <g>
        <g>
            <path d="M492,236H68.442l70.164-69.824c7.829-7.792,7.859-20.455,0.067-28.284c-7.792-7.83-20.456-7.859-28.285-0.068l-104.504,104c-0.007,0.006-0.012,0.013-0.018,0.019c-7.809,7.792-7.834,20.496-0.002,28.314c0.007,0.006,0.012,0.013,0.018,0.019l104.504,104c7.828,7.79,20.492,7.763,28.285-0.068c7.792-7.829,7.762-20.492-0.067-28.284L68.442,276H492c11.046,0,20-8.954,20-20C512,244.954,503.046,236,492,236z"/>
        </g>
    </g><g></g><g></g><g></g><g></g><g></g><g></g><g></g><g></g><g></g><g></g><g></g><g></g><g></g><g></g><g></g>
</symbol>

<symbol id="add" version="1.1" xmlns="http://www.w3.org/2000/svg" xmlns:xlink="http://www.w3.org/1999/xlink" x="0px" y="0px" viewBox="0 0 512 512" style="enable-background:new 0 0 512 512;" xml:space="preserve">
    <g>
        <g>
            <path d="M256,0C114.833,0,0,114.833,0,256s114.833,256,256,256s256-114.853,256-256S397.167,0,256,0z M256,472.341c-119.275,0-216.341-97.046-216.341-216.341S136.725,39.659,256,39.659S472.341,136.705,472.341,256S375.295,472.341,256,472.341z"/>
	    </g>
    </g>
    <g>
    <g>
		<path d="M355.148,234.386H275.83v-79.318c0-10.946-8.864-19.83-19.83-19.83s-19.83,8.884-19.83,19.83v79.318h-79.318c-10.966,0-19.83,8.884-19.83,19.83s8.864,19.83,19.83,19.83h79.318v79.318c0,10.946,8.864,19.83,19.83,19.83s19.83-8.884,19.83-19.83v-79.318h79.318c10.966,0,19.83-8.884,19.83-19.83S366.114,234.386,355.148,234.386z"/>
	</g></g><g></g><g></g><g></g><g></g><g></g><g></g><g></g><g></g><g></g><g></g><g></g><g></g><g></g><g></g><g></g>
</symbol>

<symbol id="edit" xmlns="http://www.w3.org/2000/svg" xmlns:xlink="http://www.w3.org/1999/xlink" x="0px" y="0px" viewBox="0 0 477.873 477.873" style="enable-background:new 0 0 477.873 477.873;" xml:space="preserve">
    <g>
	    <g>
		    <path d="M392.533,238.937c-9.426,0-17.067,7.641-17.067,17.067V426.67c0,9.426-7.641,17.067-17.067,17.067H51.2c-9.426,0-17.067-7.641-17.067-17.067V85.337c0-9.426,7.641-17.067,17.067-17.067H256c9.426,0,17.067-7.641,17.067-17.067S265.426,34.137,256,34.137H51.2C22.923,34.137,0,57.06,0,85.337V426.67c0,28.277,22.923,51.2,51.2,51.2h307.2c28.277,0,51.2-22.923,51.2-51.2V256.003C409.6,246.578,401.959,238.937,392.533,238.937z"/>
	    </g>
    </g>
    <g>
	    <g>
		    <path d="M458.742,19.142c-12.254-12.256-28.875-19.14-46.206-19.138c-17.341-0.05-33.979,6.846-46.199,19.149L141.534,243.937c-1.865,1.879-3.272,4.163-4.113,6.673l-34.133,102.4c-2.979,8.943,1.856,18.607,10.799,21.585c1.735,0.578,3.552,0.873,5.38,0.875c1.832-0.003,3.653-0.297,5.393-0.87l102.4-34.133c2.515-0.84,4.8-2.254,6.673-4.13l224.802-224.802C484.25,86.023,484.253,44.657,458.742,19.142z M434.603,87.419L212.736,309.286l-66.287,22.135l22.067-66.202L390.468,43.353c12.202-12.178,31.967-12.158,44.145,0.044c5.817,5.829,9.095,13.72,9.12,21.955C443.754,73.631,440.467,81.575,434.603,87.419z"/>
        </g>
    </g><g></g><g></g><g></g><g></g><g></g><g></g><g></g><g></g><g></g><g></g><g></g><g></g><g></g><g></g><g></g>
</symbol>


</svg>
