<svg width="134" height="134" viewBox="0 0 134 134" fill="none" xmlns="http://www.w3.org/2000/svg">
<g clip-path="url(#clip0)">
<path d="M70.6174 45.8401L78.9477 28.1749C75.0595 26.9708 71.013 26.3545 66.9429 26.3442C62.9168 26.3504 58.9141 26.9575 55.0669 28.1462L63.3951 45.8115C65.7869 45.4159 68.2287 45.4262 70.6174 45.8401Z" fill="#CBCEB0"/>
<path d="M57.3686 50.4908L59.6622 49.158L50.5715 29.8379C47.8997 30.9949 45.3669 32.4525 43.0242 34.1819L55.2252 51.7296L57.3686 50.4908Z" fill="#CBCEB0"/>
<path d="M50.4694 53.3014L39.3303 37.2603C33.3877 42.8032 29.2451 50.001 27.438 57.9234L46.8633 59.5455C47.7086 57.2774 48.927 55.1667 50.4694 53.3014Z" fill="#CBCEB0"/>
<path d="M68.2512 62.392C67.8474 62.2847 67.4304 62.2295 67.0123 62.2295C64.4918 62.2295 62.4036 64.1848 62.238 66.6992C62.0724 69.2147 63.8857 71.4265 66.3848 71.7577C68.8828 72.0878 71.2092 70.4248 71.7039 67.9534C72.1986 65.4819 70.692 63.0513 68.2583 62.3941L68.2512 62.392Z" fill="#CBCEB0"/>
<path d="M83.5522 80.727L94.6933 96.7559C100.634 91.217 104.777 84.0234 106.586 76.105L87.1603 74.4829C86.3161 76.752 85.0967 78.8627 83.5522 80.727Z" fill="#CBCEB0"/>
<path d="M86.1504 69.5978L107.387 71.3773C107.711 68.4776 107.721 65.5502 107.419 62.6484L86.1504 64.4208V69.5978Z" fill="#CBCEB0"/>
<path d="M85.6719 56.2491C86.2668 57.3008 86.7697 58.4017 87.1744 59.5403L106.66 57.9162C104.848 49.9825 100.684 42.7796 94.7125 37.251L83.5623 53.2798C84.3483 54.2079 85.0535 55.2014 85.6719 56.2491Z" fill="#CBCEB0"/>
<path d="M78.8105 51.7417L90.9972 34.1909C88.6433 32.4779 86.1125 31.0234 83.4468 29.8521L74.3418 49.1599L78.8105 51.7417Z" fill="#CBCEB0"/>
<path d="M82.6701 61.1503C82.3594 60.2845 81.9751 59.4464 81.5213 58.6461C81.0511 57.8498 80.5155 57.0935 79.9206 56.3852C78.7309 56.6724 77.4757 56.4925 76.4137 55.8823L71.9594 53.2943C70.9045 52.6881 70.1195 51.7028 69.7659 50.5386C68.2307 50.276 66.6658 50.2269 65.1173 50.3894C65.0468 51.1407 64.6216 51.8132 63.9736 52.1986L59.7921 54.6148L57.7489 55.8107C57.6855 55.8557 57.6201 55.8956 57.5526 55.9334C57.526 55.9497 57.4954 55.9518 57.4688 55.9661L55.6964 56.9923C55.0464 57.3817 54.244 57.4165 53.5623 57.0863C52.6434 58.3384 51.9003 59.7121 51.3565 61.1676C52.1926 62.0487 52.6577 63.216 52.6577 64.4302V69.5981C52.6597 70.8185 52.1926 71.9919 51.3545 72.878C51.6652 73.7438 52.0495 74.5819 52.5023 75.3822C52.9745 76.1836 53.5132 76.943 54.1122 77.6534C55.2958 77.3682 56.5428 77.545 57.6007 78.1481L62.0693 80.73C63.115 81.3402 63.8908 82.3255 64.2393 83.4856C65.7807 83.7513 67.3517 83.8024 68.9063 83.6389C68.9768 82.8876 69.402 82.2161 70.05 81.8298L74.2325 79.4135L76.2747 78.2176C76.3381 78.1736 76.4035 78.1328 76.471 78.096C76.5068 78.0765 76.5456 78.0673 76.5814 78.0479L78.3282 77.036C78.9823 76.667 79.7734 76.6343 80.4572 76.9471C81.3782 75.693 82.1223 74.3182 82.6671 72.8607C81.832 71.9806 81.3659 70.8123 81.3659 69.5981V64.4302C81.3639 63.2109 81.831 62.0364 82.6701 61.1503V61.1503ZM76.2533 69.4907C75.0727 73.9002 70.9413 76.8623 66.3858 76.5638C61.8302 76.2664 58.1189 72.7922 57.523 68.2652C56.9261 63.7393 59.6101 59.4219 63.9327 57.9541C68.2552 56.4863 73.0132 58.2761 75.2966 62.2296C76.5732 64.4251 76.9176 67.0397 76.2533 69.4907Z" fill="#CBCEB0"/>
<path d="M78.8015 82.2988L76.6479 83.5376L74.3542 84.8705L83.445 104.203C86.1127 103.035 88.6424 101.573 90.9882 99.8465L78.8015 82.2988Z" fill="#CBCEB0"/>
<path d="M67.0858 88.5451C65.8501 88.5318 64.6174 88.4132 63.4021 88.1914L55.0862 105.837C62.8584 108.237 71.1723 108.246 78.9496 105.866L70.6295 88.2108C69.4592 88.4204 68.2746 88.5318 67.0858 88.5451V88.5451Z" fill="#CBCEB0"/>
<path d="M84.3494 2.31101C78.6593 0.78192 72.7934 0.00408847 66.9019 0C42.9874 0.0490616 20.9117 12.8388 8.97438 33.5602C-2.96294 54.2816 -2.95169 79.7947 9.00198 100.507C22.5491 123.97 48.8952 136.961 75.7565 133.425C102.617 129.889 124.703 110.521 131.715 84.3513C136.313 67.1909 133.906 48.9063 125.023 33.5203C116.139 18.1354 101.508 6.90849 84.3464 2.31101H84.3494ZM50.2659 7.20593C51.5865 7.20593 52.6576 8.27711 52.6576 9.59768C52.6576 10.9193 51.5865 11.9905 50.2659 11.9905C48.9443 11.9905 47.8731 10.9193 47.8731 9.59768C47.8731 8.27711 48.9443 7.20593 50.2659 7.20593ZM14.1913 44.4805C13.6751 45.6979 12.2707 46.2662 11.0544 45.75C9.83705 45.2338 9.26875 43.8294 9.78492 42.6121C15.0325 30.1944 24.2111 19.8424 35.9113 13.1455C37.9218 12.0007 39.9905 10.9632 42.1104 10.0362C43.3216 9.50774 44.7321 10.0607 45.2606 11.2729C45.789 12.4841 45.235 13.8947 44.0238 14.4231C42.0603 15.2786 40.1439 16.2363 38.2826 17.2942C27.4911 23.4729 19.0279 33.0246 14.1913 44.4805ZM27.6464 89.7419C24.853 84.891 22.9876 79.5637 22.1433 74.031C22.1433 74.0044 22.127 73.9809 22.127 73.9523C19.7035 58.0747 25.823 42.0939 38.2325 31.8972C38.2816 31.839 38.3347 31.7838 38.3899 31.7316C38.4236 31.7102 38.4615 31.7081 38.4952 31.6867C42.136 28.6581 46.2684 26.2756 50.7126 24.6412L50.7442 24.6167C50.7708 24.6054 50.7964 24.6167 50.8209 24.5983C65.9288 18.8591 82.9471 21.5606 95.5355 31.6959C95.5621 31.7132 95.5927 31.7153 95.6193 31.7316C95.6837 31.7776 95.7174 31.8471 95.7777 31.8972C104.464 38.9274 110.204 48.9543 111.868 60.0044C111.868 60.031 111.885 60.0545 111.885 60.0831C114.309 75.9607 108.189 91.9415 95.7798 102.138C95.7307 102.196 95.6776 102.252 95.6224 102.304C95.5886 102.325 95.5498 102.327 95.5171 102.349C85.1947 110.704 71.7314 114.118 58.6749 111.693C45.6183 109.267 34.2789 101.246 27.6464 89.7419V89.7419ZM124.239 91.4162C118.991 103.834 109.812 114.186 98.1123 120.883C94.0371 123.217 89.7156 125.094 85.2274 126.478C84.9995 126.549 84.7624 126.585 84.5242 126.583C83.3396 126.584 82.3328 125.718 82.157 124.547C81.9802 123.376 82.6885 122.251 83.821 121.904C87.9667 120.626 91.9571 118.893 95.7205 116.734C106.518 110.558 114.99 101.007 119.832 89.5477C120.166 88.7607 120.894 88.2108 121.744 88.1065C122.592 88.0023 123.431 88.358 123.946 89.0408C124.461 89.7235 124.573 90.6291 124.239 91.4162V91.4162Z" fill="#CBCEB0"/>
<path d="M55.2078 82.2935L43.2153 99.5642L50.7156 103.885L59.6765 84.8723L55.2078 82.2935Z" fill="#CBCEB0"/>
<path d="M47.8731 64.4304L26.6366 62.6509C26.3126 65.5506 26.3023 68.478 26.6049 71.3808L47.8731 69.6074V64.4304Z" fill="#CBCEB0"/>
<path d="M48.3637 77.78C47.7688 76.7273 47.2659 75.6264 46.8611 74.4878L27.3755 76.1119C29.1918 84.0456 33.3528 91.2505 39.3159 96.7894L50.4662 80.734C49.6832 79.81 48.98 78.8216 48.3637 77.78Z" fill="#CBCEB0"/>
</g>
<defs>
<clipPath id="clip0">
<rect width="134" height="134" fill="white"/>
</clipPath>
</defs>
</svg>
